<svg width="360" height="349" viewBox="0 0 360 349" fill="none" xmlns="http://www.w3.org/2000/svg">
<path d="M114.473 292.907C113.513 293.041 112.384 293.112 112.156 294.191C111.979 295.027 112.046 295.887 112.577 296.612C113.484 297.851 114.831 298.575 116.454 298.319C117.905 298.091 119.898 296.85 119.898 295.308C119.898 294.439 119.235 293.564 118.686 292.913C118.098 292.216 117.59 291.483 116.849 290.913C115.851 290.144 115.044 290.068 114.146 290.975C113.655 291.471 113.19 292.148 112.975 292.798C112.869 293.118 112.947 293.375 112.947 293.696C112.947 294.124 112.863 293.493 112.947 293.281" stroke="#010101" stroke-opacity="0.5" stroke-linecap="round" stroke-linejoin="round"/>
<path d="M119.446 295.357C120.262 296.041 120.954 296.66 122.398 296.694C123.409 296.717 124.419 296.479 125.367 296.222C126.045 296.039 128.219 295.067 126.458 294.988" stroke="#010101" stroke-opacity="0.5" stroke-linecap="round" stroke-linejoin="round"/>
<path d="M127.865 289.386C126.788 290.509 125.301 292.711 125.859 294.398C126.056 294.991 126.341 295.391 126.71 295.898C127.453 296.918 128.604 296.6 129.649 296.334C130.406 296.14 131.305 295.532 131.595 294.84C131.995 293.885 131.161 292.391 130.465 291.734C129.687 290.999 129.071 290.106 128.204 289.463C127.974 289.292 127.799 289.107 127.498 289.17C127.16 289.241 127.021 289.546 127.47 289.546" stroke="#010101" stroke-opacity="0.5" stroke-linecap="round" stroke-linejoin="round"/>
<path d="M204.04 135.45C203.08 135.584 201.951 135.655 201.723 136.734C201.546 137.57 201.613 138.43 202.144 139.155C203.05 140.395 204.398 141.118 206.021 140.863C207.472 140.634 209.465 139.393 209.465 137.851C209.465 136.982 208.801 136.107 208.253 135.456C207.665 134.759 207.157 134.026 206.416 133.456C205.418 132.687 204.611 132.611 203.713 133.518C203.222 134.014 202.757 134.691 202.542 135.341C202.436 135.661 202.514 135.918 202.514 136.239C202.514 136.667 202.43 136.036 202.514 135.824" stroke="#010101" stroke-opacity="0.5" stroke-linecap="round" stroke-linejoin="round"/>
<path d="M209.013 137.9C209.829 138.584 210.521 139.203 211.965 139.237C212.976 139.26 213.986 139.022 214.934 138.766C215.612 138.582 217.786 137.61 216.024 137.531" stroke="#010101" stroke-opacity="0.5" stroke-linecap="round" stroke-linejoin="round"/>
<path d="M217.432 131.929C216.355 133.053 214.868 135.254 215.426 136.941C215.623 137.535 215.908 137.934 216.277 138.441C217.02 139.461 218.171 139.143 219.215 138.877C219.973 138.684 220.872 138.075 221.162 137.383C221.562 136.428 220.728 134.934 220.032 134.277C219.254 133.542 218.638 132.649 217.771 132.006C217.541 131.835 217.366 131.65 217.065 131.713C216.727 131.784 216.588 132.089 217.037 132.089" stroke="#010101" stroke-opacity="0.5" stroke-linecap="round" stroke-linejoin="round"/>
<path d="M121.392 102.793C126.925 100.304 131.397 96.19 135.894 92.3102C139.428 89.2608 143.135 86.2477 147.035 83.6162C147.805 83.097 148.892 82.052 149.933 82.4974C150.964 82.9387 151.558 84.1403 152.373 84.8518C154.379 86.6041 156.184 88.7453 157.834 90.8045C159.65 93.0712 156.926 94.3258 155.243 95.8099C153.33 97.4957 151.504 99.2342 149.415 100.722C147.429 102.136 145.833 104.085 144.016 105.685C141.245 108.125 138.654 110.722 135.892 113.164C134.247 114.618 132.361 115.805 130.777 117.31C130.222 117.837 129.709 118.535 129.069 118.974C128.555 119.326 127.844 117.97 127.661 117.714C126.209 115.687 123.959 114.299 122.537 112.178C121.643 110.845 121.041 109.199 119.971 107.981C119.46 107.4 118.183 106.091 118.743 105.242C119.314 104.375 120.936 103.959 121.821 103.338C122.511 102.854 123.35 102.256 124.135 101.92C124.705 101.675 125.265 101.242 125.776 100.908C127.119 100.029 125.696 100.404 124.787 100.731" stroke="#010101" stroke-opacity="0.5" stroke-linecap="round" stroke-linejoin="round"/>
<path d="M122.238 106.774C125.605 108.742 128.626 111.591 131.256 114.4C131.322 114.471 131.962 114.892 131.864 115.048C131.676 115.349 129.49 113.991 129.281 113.855" stroke="#010101" stroke-opacity="0.5" stroke-linecap="round" stroke-linejoin="round"/>
<path d="M125.576 103.928C128.307 104.666 129.934 106.071 132.138 107.573C133.12 108.243 134.121 108.847 135.002 109.634C135.416 110.004 135.711 110.491 136.093 110.889C136.617 111.435 134.477 110.255 134.225 110.119" stroke="#010101" stroke-opacity="0.5" stroke-linecap="round" stroke-linejoin="round"/>
<path d="M129.544 101.722C131.454 103.35 133.375 104.956 135.346 106.518C136.095 107.112 136.944 107.657 137.591 108.356C138.739 109.597 137.236 107.986 136.725 107.532" stroke="#010101" stroke-opacity="0.5" stroke-linecap="round" stroke-linejoin="round"/>
<path d="M132.221 100.17C133.638 100.984 135.118 101.772 136.318 102.869C136.811 103.319 137.219 103.849 137.745 104.266C138.394 104.779 138.962 105.379 139.614 105.878C140.544 106.588 140.683 106.796 139.579 105.904" stroke="#010101" stroke-opacity="0.5" stroke-linecap="round" stroke-linejoin="round"/>
<path d="M135.672 97.7811C137.236 98.9363 138.683 100.11 139.991 101.519C140.57 102.143 141.036 102.863 141.771 103.342C142.445 103.781 142.916 103.908 142.128 103.195" stroke="#010101" stroke-opacity="0.5" stroke-linecap="round" stroke-linejoin="round"/>
<path d="M138.995 95.3466C140.371 96.3232 141.729 97.2148 142.828 98.4727C143.332 99.0486 143.729 99.7104 144.292 100.242C145.433 101.32 144.648 100.776 143.822 100.044" stroke="#010101" stroke-opacity="0.5" stroke-linecap="round" stroke-linejoin="round"/>
<path d="M142.059 92.8203C143.992 94.566 145.611 96.6106 147.547 98.3349C148.851 99.4959 146.983 97.6354 146.677 97.3049" stroke="#010101" stroke-opacity="0.5" stroke-linecap="round" stroke-linejoin="round"/>
<path d="M145.801 90.8122C147.428 90.1851 149.115 89.4376 149.99 87.9051C150.231 87.4825 150.541 87.1146 150.641 86.6384C150.777 85.9844 150.75 86.2649 150.236 86.6882" stroke="#010101" stroke-opacity="0.5" stroke-linecap="round" stroke-linejoin="round"/>
<path d="M148.42 92.9214C149.71 91.7914 151.152 90.5571 152.097 89.1227C152.568 88.4073 153.466 87.534 152.211 88.5688" stroke="#010101" stroke-opacity="0.5" stroke-linecap="round" stroke-linejoin="round"/>
<path d="M152.555 95.2899C153.731 94.0842 154.776 92.9628 155.858 91.7021C156.208 91.2947 157.272 90.7662 155.991 91.0894" stroke="#010101" stroke-opacity="0.5" stroke-linecap="round" stroke-linejoin="round"/>
<path d="M151.62 94.6807C152.85 93.6855 154.242 92.5268 155.216 91.2701C155.476 90.9349 155.676 90.5615 155.915 90.2132C156.313 89.6298 156.339 89.8268 155.734 89.8867" stroke="#010101" stroke-opacity="0.5" stroke-linecap="round" stroke-linejoin="round"/>
<path d="M125.558 108.784C131.687 106.434 133.199 100.055 138.193 96.4478C138.801 96.0089 139.294 95.5212 140.003 95.2174C140.476 95.0143 141.061 94.917 141.493 94.6571C141.756 94.4986 143.94 92.9232 142.422 93.5741" stroke="#010101" stroke-opacity="0.5" stroke-linecap="round" stroke-linejoin="round"/>
<path d="M122.705 107.078C123.393 106.289 124.003 105.613 124.876 105.042C125.019 104.949 125.24 104.933 125.357 104.808C125.59 104.56 125.944 104.198 126.034 103.878C126.387 102.619 128.116 102.852 129.035 102.221C129.908 101.621 130.749 101.013 131.639 100.42C132.62 99.7659 133.074 99.1928 133.862 98.3554C134.586 97.5861 135.288 96.808 136.054 96.0798C136.681 95.484 137.666 94.9422 138.065 94.1796C138.515 93.3191 139.666 92.3342 140.701 92.4937C141.057 92.5485 143.671 93.9784 141.962 93.0641" stroke="#010101" stroke-opacity="0.5" stroke-linecap="round" stroke-linejoin="round"/>
<path d="M128.251 110.155C132.856 107.862 135.412 102.862 138.522 99.0844C139.668 97.6931 141.305 96.7687 142.504 95.4016C143.017 94.8169 144.15 94.1959 142.833 94.2059" stroke="#010101" stroke-opacity="0.5" stroke-linecap="round" stroke-linejoin="round"/>
<path d="M129.895 111.571C134.068 109.149 136.74 104.643 139.776 101.072C141.157 99.4476 142.49 97.789 143.888 96.1776C144.526 95.443 145.637 94.984 144.211 95.7363" stroke="#010101" stroke-opacity="0.5" stroke-linecap="round" stroke-linejoin="round"/>
<path d="M131.539 114.099C134.143 111.702 136.245 109.115 138.375 106.342C139.671 104.655 140.791 102.76 142.312 101.242C143.185 100.371 143.857 99.3507 144.649 98.4272C144.968 98.0551 145.189 97.6217 145.517 97.2527C146.256 96.4217 145.74 97.1735 145.226 97.6243" stroke="#010101" stroke-opacity="0.5" stroke-linecap="round" stroke-linejoin="round"/>
<path d="M132.151 115.15C133.447 113.951 135.345 112.798 136.21 111.243C136.524 110.679 137.3 109.316 137.845 108.971C138.565 108.514 138.908 107.543 139.432 106.932C139.978 106.296 140.512 105.675 141.104 105.07C141.66 104.503 141.838 103.507 142.525 103.019C143.291 102.475 143.663 101.633 144.274 100.984C144.803 100.422 145.81 99.8397 146.466 99.4104C146.829 99.1726 147.083 98.8483 147.495 98.6716C148.331 98.3134 147.788 98.4967 147.023 98.4697" stroke="#010101" stroke-opacity="0.5" stroke-linecap="round" stroke-linejoin="round"/>
<path d="M145.696 91.2611C146.768 91.5279 148.089 91.7111 149.066 92.2627C149.697 92.6186 150.246 92.976 149.098 92.3278" stroke="#010101" stroke-opacity="0.5" stroke-linecap="round" stroke-linejoin="round"/>
<path d="M146.809 89.5718C148.338 89.949 149.419 90.3718 150.666 91.1393C151.481 91.6412 151.35 91.5022 150.501 91.0192" stroke="#010101" stroke-opacity="0.5" stroke-linecap="round" stroke-linejoin="round"/>
<path d="M148.664 87.8675C149.977 88.5647 151.251 89.357 152.609 89.964C153.407 90.321 152.988 90.2961 152.372 90.0151" stroke="#010101" stroke-opacity="0.5" stroke-linecap="round" stroke-linejoin="round"/>
<path d="M149.72 86.5052C151.101 87.0987 152.374 87.6898 153.645 88.4364C154.225 88.7769 153.699 88.7989 153.259 88.5234" stroke="#010101" stroke-opacity="0.5" stroke-linecap="round" stroke-linejoin="round"/>
<path d="M146.373 90.6678C147.416 89.4969 148.463 88.3875 149.413 87.1873C149.682 86.8463 151.326 84.9479 150.616 85.9195" stroke="#010101" stroke-opacity="0.5" stroke-linecap="round" stroke-linejoin="round"/>
<path d="M147.469 92.7231C148.826 91.5903 150.782 90.0798 151.221 88.3874C151.349 87.8893 151.629 87.3915 152.039 87.0489C152.454 86.7014 152.889 86.5444 152.268 87.1301" stroke="#010101" stroke-opacity="0.5" stroke-linecap="round" stroke-linejoin="round"/>
<path d="M146.381 92.6847C147.828 91.2131 149.065 90.224 149.882 88.4111C150.095 87.9403 150.338 87.5501 150.687 87.1796C151.056 86.787 151.586 86.4193 150.873 87.1221" stroke="#010101" stroke-opacity="0.5" stroke-linecap="round" stroke-linejoin="round"/>
<path d="M151.758 93.4095C152.425 93.8084 153.093 94.1781 153.785 94.51C154.071 94.6471 153.718 94.3818 153.596 94.3387" stroke="#010101" stroke-opacity="0.5" stroke-linecap="round" stroke-linejoin="round"/>
<path d="M153.056 91.4386C153.101 91.4748 155.721 93.5941 155.257 93.1215" stroke="#010101" stroke-opacity="0.5" stroke-linecap="round" stroke-linejoin="round"/>
<path d="M154.613 90.6702C155.191 91.1952 156.961 92.7305 156.338 92.2539" stroke="#010101" stroke-opacity="0.5" stroke-linecap="round" stroke-linejoin="round"/>
<path d="M150.984 94.2466C151.941 93.4046 154.042 91.7363 154.556 90.442C154.759 89.9319 155.688 89.2765 154.815 89.9777" stroke="#010101" stroke-opacity="0.5" stroke-linecap="round" stroke-linejoin="round"/>
<path d="M151.104 94.4977C151.195 94.5665 153.027 96.4293 153.418 95.526C153.617 95.065 153.877 94.4645 154.366 94.2104C155.224 93.7645 155.383 92.3604 156.261 91.9837C157.258 91.5565 157.165 90.8399 156.237 90.5857C155.872 90.4859 156.16 89.8075 155.781 89.8608C155.434 89.9096 155.251 89.7888 154.863 89.8559" stroke="#010101" stroke-opacity="0.5" stroke-linecap="round" stroke-linejoin="round"/>
<path d="M145.575 91.0099C146.203 92.1434 146.322 92.5544 147.336 93.0271C147.61 93.1547 147.967 92.9777 148.174 93.0773C148.585 93.2742 149.397 93.2783 149.704 92.9209C150.321 92.2021 150.548 91.7382 151.493 91.301C152.089 91.0252 152.568 90.3744 152.844 89.835C153.147 89.242 153.693 88.7953 154.013 88.2001C154.149 87.9467 153.049 87.294 153.04 86.8555C153.037 86.7312 151.73 86.7275 151.513 86.6233C151.25 86.4971 151.129 86.3192 151.003 86.0565C150.818 85.6728 150.491 86.1492 149.995 86.1856" stroke="#010101" stroke-opacity="0.5" stroke-linecap="round" stroke-linejoin="round"/>
<path d="M123.818 105.389C125.302 105.921 126.596 106.608 127.932 107.368C129.092 108.028 130.403 108.379 131.556 109.019C132.376 109.474 133.228 110.513 133.833 111.196C134.035 111.423 134.186 111.636 134.329 111.893C134.657 112.481 134.316 111.059 134.281 110.903" stroke="#010101" stroke-opacity="0.5" stroke-linecap="round" stroke-linejoin="round"/>
<path d="M138.148 94.6992C138.56 95.1071 140.226 97.3591 139.898 95.6664" stroke="#010101" stroke-opacity="0.5" stroke-linecap="round" stroke-linejoin="round"/>
<path d="M141.578 251.023C141.755 251.88 142.204 252.437 142.552 253.218C142.789 253.749 143.232 254.16 143.478 254.682C143.745 255.245 144.144 255.906 144.515 256.407C144.834 256.837 145.042 257.244 145.444 257.623C146.154 258.294 146.692 259.093 147.405 259.754C148.443 260.714 150.199 261.968 151.71 261.889C152.195 261.863 152.733 262.005 153.209 261.937C153.618 261.879 154.114 261.86 154.523 261.926C155.195 262.036 155.925 261.926 156.568 262.057C156.916 262.128 157.294 262.024 157.645 262.086C158.101 262.165 158.635 262.185 159.1 262.185C160.62 262.185 162.137 262.177 163.653 261.995C164.475 261.896 165.289 262.154 166.102 262.017C166.866 261.889 167.883 262.021 168.601 261.725C169.483 261.36 170.361 260.787 171.043 260.143C171.385 259.821 171.644 259.435 171.876 259.036C172.18 258.512 172.349 257.947 172.654 257.424C173.72 255.6 174.327 253.57 175.19 251.67C175.394 251.222 175.728 250.859 175.971 250.445C176.033 250.34 176.061 250.206 176.161 250.106C176.538 249.73 175.817 249.69 175.486 249.548" stroke="#010101" stroke-opacity="0.5" stroke-linecap="round" stroke-linejoin="round"/>
<path d="M141.409 251.103C142.164 250.171 142.804 249.486 143.901 248.959C144.819 248.518 145.771 247.993 146.601 247.417C147.876 246.532 149.63 246.138 151.182 245.872C152.872 245.582 154.534 245.243 156.254 245.243C156.786 245.243 157.313 245.394 157.845 245.402C158.482 245.412 159.12 245.431 159.754 245.482C160.727 245.56 161.726 245.541 162.701 245.561C164.06 245.589 165.362 246.254 166.722 246.357C167.53 246.418 168.473 246.532 169.26 246.74C169.554 246.818 169.89 246.871 170.165 246.997C170.507 247.154 170.747 247.419 171.061 247.604C172.076 248.199 173.21 248.48 174.306 248.932C174.642 249.071 175.219 249.309 175.591 249.309C176.103 249.309 176.077 250.201 176.077 249.309" stroke="#010101" stroke-opacity="0.5" stroke-linecap="round" stroke-linejoin="round"/>
<path d="M175.992 249.867C175.366 250.659 174.92 250.961 174.031 251.424C173.334 251.787 172.561 252.044 171.779 252.179C171.05 252.305 170.253 252.405 169.513 252.461C168.897 252.507 168.27 252.439 167.641 252.507C166.219 252.66 164.785 253.006 163.414 253.384C161.456 253.924 159.566 253.98 157.544 254.084C155.337 254.197 153.124 254.038 150.962 253.614C150.232 253.472 149.461 253.6 148.719 253.572C147.901 253.542 147.1 253.329 146.331 253.078C146.007 252.973 145.709 252.81 145.369 252.737C144.971 252.652 144.567 252.686 144.173 252.596C143.623 252.47 142.981 252.244 142.516 251.94C142.314 251.808 142.011 251.699 141.852 251.499C141.806 251.441 141.747 251.312 141.747 251.242C141.747 251.077 141.604 251.119 141.831 251.262" stroke="#010101" stroke-opacity="0.5" stroke-linecap="round" stroke-linejoin="round"/>
<path d="M157.835 257.96C158.349 257.906 159.028 257.915 158.816 257.291C158.748 257.09 158.576 257.069 158.393 257.012C157.85 256.841 156.878 257.172 156.674 257.707C156.308 258.668 157.001 259.706 158.091 259.373C158.387 259.282 158.913 259.084 159.102 258.83C159.328 258.525 158.988 258.615 158.764 258.318" stroke="#010101" stroke-opacity="0.5" stroke-linecap="round" stroke-linejoin="round"/>
<path d="M156.273 256.923C157.092 256.613 157.511 256.485 158.34 256.485C158.674 256.485 158.841 256.462 159.135 256.644C159.621 256.944 159.789 257.515 159.738 258.017C159.695 258.442 159.546 259.023 159.388 259.426C159.271 259.725 158.98 259.777 158.682 259.833C158.41 259.885 157.817 259.741 157.603 259.853C157.376 259.972 156.681 260.013 156.505 259.791C156.343 259.588 156.17 259.5 156.052 259.253C155.94 259.017 155.889 258.792 155.799 258.558C155.675 258.236 155.452 257.356 155.914 257.162C156.185 257.049 156.301 256.981 156.611 256.981C156.699 256.981 156.774 257.043 156.864 257.043C156.994 257.043 156.614 256.963 156.484 256.963" stroke="#010101" stroke-opacity="0.5" stroke-linecap="round" stroke-linejoin="round"/>
<path d="M157.751 253.734C158.346 253.007 158.89 252.257 159.505 251.55C159.836 251.171 160.247 250.844 160.603 250.481C161.624 249.44 162.664 248.301 163.442 247.085C164.208 245.887 165.255 244.583 166.391 243.683C166.991 243.208 167.527 242.683 168.049 242.135C168.556 241.604 168.789 240.861 169.269 240.299C169.641 239.864 172.074 236.905 172.497 238.705C172.663 239.411 171.933 239.906 171.474 240.339C170.954 240.831 170.431 241.455 169.987 242.013C169.559 242.552 169.039 243.025 168.624 243.568C168.059 244.307 167.03 244.835 166.618 245.672C166.278 246.363 165.714 246.917 165.29 247.557C164.704 248.444 164.016 249.184 163.325 249.995C162.777 250.638 161.918 251.167 161.53 251.9C161.206 252.513 160.631 252.771 160.106 253.167C159.878 253.34 159.6 253.435 159.398 253.674C159.33 253.754 159.21 253.846 159.147 253.756C159.111 253.705 158.973 253.819 158.999 253.876C159.089 254.074 158.87 253.399 158.849 253.335" stroke="#010101" stroke-opacity="0.5" stroke-linecap="round" stroke-linejoin="round"/>
<path d="M157.413 253.933C157.575 254.011 158.595 254.742 158.595 254.152C158.595 253.974 158.838 253.676 158.924 253.495C158.989 253.357 158.405 253.489 158.319 253.594C158.205 253.732 157.985 253.844 158.342 253.853C158.616 253.861 158.83 253.75 159.039 253.597C159.099 253.553 159.904 253.673 159.187 253.654C158.805 253.644 158.434 253.654 158.068 253.654C157.751 253.654 158.393 253.574 158.485 253.574C158.559 253.574 157.95 253.916 157.845 253.805C157.819 253.778 157.775 253.703 157.878 253.654" stroke="#010101" stroke-opacity="0.5" stroke-linecap="round" stroke-linejoin="round"/>
<path d="M143.985 250.983C144.032 251.007 145.542 251.753 145.547 251.661C145.554 251.549 145.47 251.452 145.528 251.342C145.784 250.86 146.114 251.091 146.554 251.278C146.896 251.423 146.376 249.811 147.41 250.491C147.944 250.843 148.086 250.787 147.999 250.197C147.932 249.75 148.096 249.749 148.503 249.796C148.78 249.828 148.978 249.885 149.136 249.637C149.328 249.335 149.544 249.163 149.936 249.293C150.262 249.401 150.55 249.705 150.774 249.318C150.872 249.147 150.789 248.637 151.1 248.735C151.295 248.796 151.551 249.037 151.773 248.961C151.941 248.904 152.071 248.412 152.261 248.489C152.46 248.57 152.663 248.927 152.913 248.841C153.034 248.8 153.259 248.427 153.021 248.472" stroke="#010101" stroke-opacity="0.5" stroke-linecap="round" stroke-linejoin="round"/>
<path d="M149.939 250.266C150.462 250.668 152.423 252.815 152.998 251.211C153.101 250.924 153.117 250.355 153.406 250.826C153.644 251.214 154.002 251.483 154.391 251.116C154.649 250.873 154.764 250.46 155.133 250.332C155.471 250.215 155.72 250.816 156.001 250.465C156.228 250.182 156.118 249.696 155.785 249.526C155.676 249.47 155.645 249.662 155.597 249.708" stroke="#010101" stroke-opacity="0.5" stroke-linecap="round" stroke-linejoin="round"/>
<path d="M154.457 247.794C155.273 247.662 156.3 247.392 156.92 248.082C157.208 248.401 157.181 248.809 156.991 249.171C156.852 249.436 156.478 249.568 156.24 249.309C156.044 249.096 156.448 248.745 156.592 248.616C157.086 248.171 157.819 248.883 157.974 249.366C158.103 249.77 156.934 250.706 157.075 250.305" stroke="#010101" stroke-opacity="0.5" stroke-linecap="round" stroke-linejoin="round"/>
<path d="M168.181 249.149C168.423 249.071 169.981 248.597 169.682 249.38C169.528 249.781 168.941 249.997 168.556 250.128C168.374 250.19 167.903 250.18 168.209 249.929C168.473 249.712 168.846 249.61 169.194 249.637C170.549 249.741 168.654 251.21 168.265 251.413C167.509 251.807 166.481 252.221 165.689 251.741" stroke="#010101" stroke-opacity="0.5" stroke-linecap="round" stroke-linejoin="round"/>
<path d="M159.862 246.797C160.184 247.291 160.57 247.787 160.845 248.306C160.94 248.484 160.531 248.027 160.434 247.849C160.409 247.802 160.233 247.279 160.216 247.282C160.011 247.325 159.962 248.214 159.907 248.379C159.644 249.155 158.994 248.857 158.356 248.799C157.584 248.729 157.239 249.448 156.812 249.907C156.471 250.274 156.337 250.387 156.568 250.824C156.756 251.177 156.834 251.52 156.568 251.84C156.361 252.09 156.102 252.248 155.853 252.454C155.624 252.643 155.952 252.612 155.909 252.498C155.792 252.188 155.069 252.253 154.832 252.268C153.954 252.323 153.058 252.115 152.196 252.166C151.737 252.193 151.306 252.435 150.851 252.498C150.39 252.563 151 252.941 151.173 253.05C151.47 253.237 150.59 252.651 150.267 252.507C149.725 252.265 149.225 252.077 148.944 251.541C148.663 251.004 148.416 250.638 147.94 250.243C147.776 250.107 147.757 249.901 147.837 249.716C148.022 249.289 148.434 248.942 148.841 248.711" stroke="#010101" stroke-opacity="0.5" stroke-linecap="round" stroke-linejoin="round"/>
<path d="M159.778 248.392C158.719 247.694 157.846 247.394 156.601 247.236C156.164 247.18 155.697 246.894 155.412 246.578C155.159 246.297 155.302 246.372 155.004 246.753C154.596 247.274 154.293 246.806 153.772 246.943C152.974 247.154 152.288 247.855 151.478 247.984C151.256 248.02 151.309 247.669 151.032 247.821C150.565 248.075 150.208 248.316 149.662 248.396C149.332 248.445 148.706 248.651 148.757 249.03" stroke="#010101" stroke-opacity="0.5" stroke-linecap="round" stroke-linejoin="round"/>
<path d="M166.956 248.392C167.977 248.485 169.012 248.473 170.029 248.576C170.387 248.612 170.57 248.749 170.822 248.97C171.049 249.17 171.404 249.64 171.73 249.665C172.2 249.702 172.443 249.518 172.882 249.389C173.146 249.311 173.989 249.389 173.712 249.389" stroke="#010101" stroke-opacity="0.5" stroke-linecap="round" stroke-linejoin="round"/>
<path d="M166.196 249.468C165.098 250.151 164.512 251.187 163.336 251.809C163.104 251.932 162.391 252.171 162.445 252.576C162.484 252.868 164.863 251.951 165.225 251.78" stroke="#010101" stroke-opacity="0.5" stroke-linecap="round" stroke-linejoin="round"/>
<path d="M170.292 250.425C170.889 250.845 171.404 251.444 172.15 251.231C172.352 251.174 172.774 251.151 172.91 251.023" stroke="#010101" stroke-opacity="0.5" stroke-linecap="round" stroke-linejoin="round"/>
<path d="M317.86 233.046C314.777 233.605 312.535 234.445 310.581 236.817C309.342 238.321 309.614 240.687 310.425 242.281C311.763 244.907 315.05 246.39 318.016 246.519C321.471 246.669 326.274 245.711 326.982 241.82C327.362 239.735 325.252 237.763 324.264 236.053C323.46 234.661 322.249 232.786 320.557 232.197C319.866 231.957 318.263 232.04 317.761 232.689C317.536 232.98 317.247 233.286 317.084 233.611C316.951 233.875 317.093 232.94 317.061 232.669" stroke="#010101" stroke-opacity="0.5" stroke-linecap="round" stroke-linejoin="round"/>
<path d="M319.159 240.212C318.327 240.616 316.976 240.883 317.705 241.768C317.871 241.969 318.108 241.958 318.31 241.768C318.482 241.605 319.352 240.75 318.709 240.547C317.399 240.135 317.878 242.604 318.815 241.511C319.318 240.924 318.614 240.347 317.983 240.704C317.23 241.13 317.825 241.874 318.415 241.228C318.86 240.741 318.505 240.368 318.021 240.825C317.588 241.234 318.028 241.886 318.454 241.333C318.891 240.766 318.393 240.286 317.866 240.783C317.256 241.359 317.916 241.298 318.349 240.919C318.785 240.537 318.011 240.593 317.761 240.893C317.178 241.589 318.091 241.49 318.238 240.893C318.454 240.016 317.495 242.031 317.96 240.495" stroke="#010101" stroke-opacity="0.5" stroke-linecap="round" stroke-linejoin="round"/>
<path d="M315.763 237.289C316.65 238.394 317.56 239.442 318.304 240.547C318.511 240.853 318.346 241.161 318.46 241.155C318.88 241.133 319.311 241.061 319.758 241.061C320.783 241.061 321.59 240.589 322.577 240.589C323.773 240.589 325.529 240.296 323.554 239.363" stroke="#010101" stroke-opacity="0.5" stroke-linecap="round" stroke-linejoin="round"/>
<path d="M314.764 232.951C314.578 232.06 313.666 229.899 315.363 230.128C315.972 230.21 316.381 230.805 316.739 231.181C317.672 232.159 317.572 233.339 316.062 233.423C315.667 233.445 315.11 234.185 314.664 233.659C314.159 233.062 314.675 233.103 314.764 232.386C314.823 231.917 314.498 231.956 314.359 231.495C314.252 231.142 314.474 230.755 314.564 230.5" stroke="#010101" stroke-opacity="0.5" stroke-linecap="round" stroke-linejoin="round"/>
<path d="M315.363 231.914C315.355 232.139 314.987 234.169 315.769 233.837C316.03 233.725 316.256 233.564 316.362 233.308C316.465 233.059 316.356 232.911 316.24 232.668C315.942 232.043 315.078 231.072 315.341 232.48C315.507 233.368 316.558 233.16 316.64 232.312C316.702 231.664 315.837 230.797 315.286 231.537C314.896 232.061 315.59 233.215 315.996 232.407C316.202 231.996 315.709 230.952 315.186 231.464C314.649 231.988 315.456 233.095 315.985 232.647C316.508 232.205 316.153 230.854 315.585 231.369C315.067 231.841 315.845 232.779 316.24 232.061C316.681 231.259 315.71 230.655 315.408 231.495C315.138 232.245 315.979 233.051 316.174 232.029C316.322 231.252 314.809 230.838 314.809 231.767C314.809 232.623 315.619 232.536 315.619 231.757C315.619 230.945 314.753 231.128 315.114 231.809C315.475 232.491 315.958 231.281 315.552 230.898C315.078 230.45 314.45 231.142 315.008 231.574C315.389 231.868 315.909 230.648 315.269 230.421C314.716 230.225 315.022 231.291 315.214 231.05C315.511 230.676 315.055 230.426 315.369 230.5C315.645 230.565 316.317 230.704 316.507 230.934C316.656 231.116 317.261 232.124 317.261 232.386C317.261 233.187 315.964 233.618 315.219 233.418C314.685 233.273 314.527 233.63 314.714 233.512C315.169 233.226 315.264 232.48 315.264 232.763" stroke="#010101" stroke-opacity="0.5" stroke-linecap="round" stroke-linejoin="round"/>
<path d="M315.264 246.435C314.749 247.465 314.293 248.5 313.688 249.474C313.551 249.693 313.296 250.14 313.266 250.396C313.185 251.083 313.917 248.755 314.065 248.415" stroke="#010101" stroke-opacity="0.5" stroke-linecap="round" stroke-linejoin="round"/>
<path d="M325.351 244.455C326.616 245.963 328.011 247.038 328.997 248.693C329.094 248.856 329.262 248.986 329.396 249.112C329.845 249.536 328.563 248.208 328.148 247.755" stroke="#010101" stroke-opacity="0.5" stroke-linecap="round" stroke-linejoin="round"/>
<path d="M241.572 156.538C242.363 159.356 245.417 169.832 246.148 173.66C248.159 184.199 245.003 169.818 244.995 174.473" stroke="#010101" stroke-opacity="0.5" stroke-width="2" stroke-linecap="round" stroke-linejoin="round"/>
<path d="M236.212 161.094C235.942 156.806 234.923 150.854 241.293 151.466C244.289 151.755 247.59 153.434 249.458 155.68C252.345 159.152 250.822 164.533 247.702 167.296C246.043 168.766 244.432 169.503 242.259 170.059C238.579 171.001 241.483 166.175 242.076 164.852" stroke="#010101" stroke-opacity="0.5" stroke-width="2" stroke-linecap="round" stroke-linejoin="round"/>
<path d="M252.778 166.335C259.107 166.015 264.932 164.839 267.196 171.319C268.512 175.084 270.114 179.659 269.017 183.628C268.026 187.214 265.892 189.455 261.989 187.928C256.412 185.745 256.419 181.635 259.455 177.537C260.573 176.028 264.853 173.007 264.856 171.243" stroke="#010101" stroke-opacity="0.5" stroke-width="2" stroke-linecap="round" stroke-linejoin="round"/>
<path d="M264.185 159.342C263.969 160.914 263.966 172.035 260.778 172.142C260.18 172.162 259.678 172.456 259.156 172.701C257.149 173.645 258.37 172.796 259.119 171.814C260.816 169.589 264.254 170.411 265.975 167.459C267.844 164.253 268.705 162.676 266.025 160.196C264.148 158.458 264.973 155.502 263.494 159.667" stroke="#010101" stroke-opacity="0.5" stroke-width="2" stroke-linecap="round" stroke-linejoin="round"/>
<path d="M273.525 149.25C275.971 154.449 278.207 161.219 282.13 165.745C283.167 166.94 283.749 165.9 283.733 164.968C283.714 163.791 283.362 162.604 283.001 161.49" stroke="#010101" stroke-opacity="0.5" stroke-width="2" stroke-linecap="round" stroke-linejoin="round"/>
<path d="M266.424 162.769C270.305 161.328 279.834 159.869 281.457 155.293" stroke="#010101" stroke-opacity="0.5" stroke-width="2" stroke-linecap="round" stroke-linejoin="round"/>
<path d="M278.359 149.421C295.18 177.197 278.792 157.674 287.342 152.594C292.531 149.511 292.964 164.044 294.402 157.758" stroke="#010101" stroke-opacity="0.5" stroke-width="2" stroke-linecap="round" stroke-linejoin="round"/>
<path d="M293.382 148.465C293.992 150.188 296.042 161.559 300.309 158.962C302.217 157.8 304.439 155.585 304.807 153.408C305.202 151.072 303.656 145.137 300.158 145.776C298.562 146.068 295.892 146.138 294.851 147.571C293.844 148.955 293.209 152.197 294.417 148.792" stroke="#010101" stroke-opacity="0.5" stroke-width="2" stroke-linecap="round" stroke-linejoin="round"/>
<path d="M305.299 145.712C310.069 142.82 315.676 141.871 316.402 148.68C316.493 149.535 316.51 150.611 316.925 151.398C317.406 152.31 316.417 149.168 315.481 148.661" stroke="#010101" stroke-opacity="0.5" stroke-width="2" stroke-linecap="round" stroke-linejoin="round"/>
<path d="M304.95 148.319C305.165 151.878 304.627 156.7 306.388 160.039C306.448 160.153 306.867 161.024 306.656 160.547C306.238 159.602 306.065 158.961 305.279 157.937" stroke="#010101" stroke-opacity="0.5" stroke-width="2" stroke-linecap="round" stroke-linejoin="round"/>
<path d="M184.222 180.541C183.562 186.326 184.714 204.138 174.306 203.03C172.136 202.799 170.165 202.456 169.134 200.526C168.055 198.506 167.162 196.747 167.055 194.451C166.923 191.631 168.111 190.3 170.527 189.028C171.373 188.582 169.553 190.389 169.392 190.564C168.331 191.715 171.932 190.311 173.308 190.023" stroke="#010101" stroke-opacity="0.5" stroke-width="2" stroke-linecap="round" stroke-linejoin="round"/>
<path d="M197.584 183.321C192.32 183.786 184.889 184.728 184.04 190.945C183.579 194.318 188.89 194.728 191.196 195.877C195.156 197.85 198.162 204.286 193.719 207.119C190.629 209.089 188.293 208.042 185.287 208.239C182.235 208.438 184.36 207.376 186.17 207.085" stroke="#010101" stroke-opacity="0.5" stroke-width="2" stroke-linecap="round" stroke-linejoin="round"/>
<path d="M226.11 30.246C225.688 34.2374 225.431 38.2698 224.91 42.2517C224.86 42.6349 224.46 44.1473 224.933 42.9245C225.278 42.0305 225.166 41.0987 225.721 40.2509C226.485 39.0832 229.938 34.6351 231.559 35.085C234.809 35.9868 231.529 41.6778 230.598 43.3086C230.278 43.871 229.403 45.091 229.856 45.7218C230.459 46.5626 231.576 43.4552 231.623 43.3601" stroke="#010101" stroke-opacity="0.5" stroke-width="2" stroke-linecap="round" stroke-linejoin="round"/>
<path d="M238.945 32.8669C238.56 34.6502 235.325 43.4523 238.442 44.9103C239.322 45.3217 241.268 44.5451 241.872 43.8755C242.502 43.1783 242.173 42.1107 242.105 41.3015" stroke="#010101" stroke-opacity="0.5" stroke-width="2" stroke-linecap="round" stroke-linejoin="round"/>
<path d="M232.532 33.0593C235.952 34.0195 239.469 34.6588 242.867 35.6494C243.669 35.8833 243.97 35.9892 244.402 36.6648C245.074 37.7156 243.289 36.7557 242.981 36.4374" stroke="#010101" stroke-opacity="0.5" stroke-width="2" stroke-linecap="round" stroke-linejoin="round"/>
<path d="M247.998 39.2981C247.213 41.5356 246.475 43.8011 245.58 46.0028C245.401 46.4406 245.375 46.6006 245.279 46.2663C245.186 45.9442 245.096 45.7544 245.248 45.4143C246.053 43.6066 247.932 41.0085 249.704 39.9988C251.618 38.9084 250.573 42.5709 250.316 43.3123C250.028 44.145 249.25 46.4271 250.134 44.2188C250.66 42.9046 251.869 39.6384 253.905 40.1138C255.138 40.4017 254.853 41.9759 254.635 42.8083C254.233 44.3433 253.834 45.8679 253.43 47.408C252.841 49.6585 253.159 48.4432 253.59 46.7987" stroke="#010101" stroke-opacity="0.5" stroke-width="2" stroke-linecap="round" stroke-linejoin="round"/>
<path d="M263.201 34.3994C261.972 38.5713 260.465 42.7314 259.406 46.9467C259.282 47.4411 259.011 49.2716 259.845 49.4896C260.637 49.6968 263.766 47.9217 263.002 47.3063" stroke="#010101" stroke-opacity="0.5" stroke-width="2" stroke-linecap="round" stroke-linejoin="round"/>
<path d="M50.5059 204.575C47.6006 209.786 44.7045 215.001 41.7913 220.208C40.961 221.692 39.3221 226.233 39.1192 224.566C38.844 222.305 40.3073 219.139 40.9282 217.021C41.8044 214.031 43.5886 208.057 48.0346 208.079C51.3907 208.095 55.1636 212.742 55.684 215.641C56.0515 217.687 57.1201 215.376 58.5704 214.759" stroke="#010101" stroke-opacity="0.5" stroke-width="2" stroke-linecap="round" stroke-linejoin="round"/>
<path d="M59.5117 221.269C61.4641 225.556 64.3422 232.803 70.2689 228.816C72.9921 226.984 71.6388 223.848 68.9505 222.853C62.3622 220.413 54.0605 227.227 52.4174 232.828C50.7747 238.428 57.2595 240.145 61.7204 240.698C64.1888 241.004 63.6352 239.012 65.7591 238.319" stroke="#010101" stroke-opacity="0.5" stroke-width="2" stroke-linecap="round" stroke-linejoin="round"/>
<path d="M75.9197 236.091C70.8017 234.073 64.0214 232.275 61.1372 238.45C59.747 241.426 65.9686 241.775 67.814 241.693C71.3385 241.536 79.1867 233.833 76.5426 236.039C74.2222 237.975 71.8739 240.259 70.9198 243.118C70.3036 244.964 71.0113 249.043 73.2784 246.226" stroke="#010101" stroke-opacity="0.5" stroke-width="2" stroke-linecap="round" stroke-linejoin="round"/>
<path d="M95.8222 239.954C88.394 240.627 79.5904 240.979 76.955 248.858C75.6594 252.732 78.699 255.425 82.3614 256.562C84.9208 257.356 87.5297 255.632 89.0824 253.882" stroke="#010101" stroke-opacity="0.5" stroke-width="2" stroke-linecap="round" stroke-linejoin="round"/>
<path d="M102.569 241.023C102.162 241.49 83.8634 260.319 92.5855 260.465C95.0005 260.505 97.479 259.178 99.1423 257.687" stroke="#010101" stroke-opacity="0.5" stroke-width="2" stroke-linecap="round" stroke-linejoin="round"/>
<path d="M87.0701 244.449C90.5833 246.736 94.0471 249.158 97.9008 250.926C98.9016 251.385 100.57 251.604 101.258 252.557C101.645 253.091 101.037 251.821 100.969 251.636" stroke="#010101" stroke-opacity="0.5" stroke-width="2" stroke-linecap="round" stroke-linejoin="round"/>
<path d="M47.8824 93.6983C50.8307 98.4586 60.1935 112.346 56.3925 108.159C53.963 105.483 52.1175 101.931 50.577 98.7654C48.9605 95.4432 47.4426 89.515 53.6027 89.8159C58.8898 90.0741 61.0005 95.1715 61.9305 99.3497C62.3408 101.193 62.4455 102.625 63.3213 104.301C64.2167 106.016 64.2664 99.411 64.6067 97.6973" stroke="#090909" stroke-width="2" stroke-linecap="round" stroke-linejoin="round"/>
<path d="M66.9307 84.017C67.0952 84.7372 69.6438 101.199 73.3428 98.0325C74.9002 96.6995 75.2425 93.4138 75.4425 91.6138C76.0675 85.9876 73.5501 85.2928 69.3666 84.1021C67.3708 83.5341 66.9618 83.5598 66.4137 85.4995C65.2883 89.4827 67.0623 88.3635 69.3355 86.1486" stroke="#090909" stroke-width="2" stroke-linecap="round" stroke-linejoin="round"/>
<path d="M83.015 79.3735C80.9597 82.6434 78.339 86.4899 79.7848 90.4953C80.3845 92.1567 81.7796 91.7178 82.7566 90.7824C84.2985 89.3065 85.1023 86.8805 85.0165 84.8536C84.8522 80.9678 82.274 77.6428 79.5689 74.882C79.1938 74.4992 75.7773 71.8402 76.4463 74.1232C77.6481 78.2239 80.9926 82.1682 83.3232 85.7323C87.1644 91.6063 88.3425 89.3252 90.068 83.8113" stroke="#090909" stroke-width="2" stroke-linecap="round" stroke-linejoin="round"/>
<path d="M90.4331 80.3901C91.7086 81.513 101.773 88.3005 102.086 82.28C102.114 81.7337 101.377 81.5632 101.134 81.0977C100.507 79.8983 99.4692 79.1072 98.9044 78.4781" stroke="#090909" stroke-width="2" stroke-linecap="round" stroke-linejoin="round"/>
<path d="M91.2726 84.4695C87.2874 79.5288 81.7204 74.3919 87.4272 69.5074C89.8317 67.4493 94.8204 69.0768 94.6899 72.5155C94.6292 74.1171 94.2713 78.0774 91.835 78.4956C90.5468 78.7167 89.9531 77.9202 91.1447 76.8076" stroke="#090909" stroke-width="2" stroke-linecap="round" stroke-linejoin="round"/>
<path d="M100.37 63.9784C102.946 65.5262 121.307 75.7697 111.69 80.2471C110.191 80.9449 108.872 79.3186 108.075 78.2723C106.279 75.9134 111.512 72.5672 111.73 70.0686" stroke="#090909" stroke-width="2" stroke-linecap="round" stroke-linejoin="round"/>
<path d="M115.439 55.7433C113.94 56.8995 105.338 64.0814 112.102 65.47C115.838 66.237 119.37 62.7219 122.21 60.9674C126.784 58.141 127.75 63.5798 126.493 66.6496C125.723 68.5296 119.296 74.6819 121.055 69.7908" stroke="#090909" stroke-width="2" stroke-linecap="round" stroke-linejoin="round"/>
<path d="M166.21 323.054C160.487 325.773 152.988 330.731 159.175 337.31C162.143 340.466 167.621 339.173 171.529 338.808C172.627 338.706 175.656 339.703 174.832 339.011C173.048 337.513 171.764 337.61 171.229 335.082" stroke="#010101" stroke-opacity="0.5" stroke-width="2" stroke-linecap="round" stroke-linejoin="round"/>
<path d="M183.196 321.232C183.196 325.215 183.157 328.066 187.486 329.615C189.355 330.284 190.529 330.898 191.025 332.875C191.586 335.11 189.934 338.348 187.979 339.598C185.563 341.143 182.527 341.683 179.808 340.63C177.479 339.73 180.053 338.664 181.266 337.634" stroke="#010101" stroke-opacity="0.5" stroke-width="2" stroke-linecap="round" stroke-linejoin="round"/>
<path d="M202.114 316.858C201.354 319.636 197.931 327.064 200.977 329.939C202.206 331.099 204.587 330.455 206.103 330.79C207.611 331.122 208.905 332.213 209.835 333.341C211.306 335.127 209.906 337.835 208.205 339.092C205.566 341.041 201.797 340.185 198.725 340.185C197.048 340.185 198.193 340.073 199.025 339.092" stroke="#010101" stroke-opacity="0.5" stroke-width="2" stroke-linecap="round" stroke-linejoin="round"/>
<path d="M45.0403 160.512C46.7597 156.684 46.0555 153.349 46.0555 149.382C46.0555 148.61 45.9072 146.26 46.7661 145.839C48.1208 145.176 49.3867 144.733 50.9849 144.733C52.0475 144.733 53.1151 144.762 54.1772 144.733C55.2395 144.704 56.2685 144.296 57.3187 144.174C59.2729 143.948 61.3054 144.263 63.2352 144.263C64.7674 144.263 66.3524 144.451 67.8262 144.451C68.0879 144.451 69.1546 144.569 69.3265 144.712C69.8525 145.15 69.7018 145.852 70.1161 146.236" stroke="#010101" stroke-opacity="0.5" stroke-linecap="round" stroke-linejoin="round"/>
<path d="M70.015 146.575C70.0819 147.704 70.1069 149.289 70.5992 150.393C70.9182 151.108 70.6638 152.06 70.7284 152.822C70.8523 154.284 70.6216 155.71 70.6216 157.128C70.6216 159.032 70.7228 160.91 70.7228 162.803C70.7228 164.428 69.0415 164.156 67.7119 163.927C66.5632 163.73 65.0218 164.125 63.8247 164.139C61.5151 164.166 59.1948 164.33 56.8816 164.33C54.9498 164.33 53.5152 163.801 51.7362 163.164C50.7862 162.823 50.2119 162.898 49.1915 162.898C48.2251 162.898 47.4303 162.756 46.4615 163.042C45.8947 163.209 44.8796 163.064 44.5572 162.517C44.1706 161.86 44.9392 161.575 44.9392 161.037C44.9392 160.585 44.8791 159.294 45.0403 160.512" stroke="#010101" stroke-opacity="0.5" stroke-linecap="round" stroke-linejoin="round"/>
<path d="M56.5671 149.057C56.5671 149.057 56.9715 149.248 57.376 149.63C57.7804 149.916 58.6318 149.773 59.3476 149.773C59.7243 149.773 60.1221 149.496 60.4599 149.354C61.1441 149.067 60.736 149.607 60.5722 149.916C60.3909 150.258 60.598 150.895 60.9261 151.109C61.4675 151.463 62.0032 151.158 62.5327 150.908C62.7525 150.804 62.6921 150.756 62.7602 150.897C62.8524 151.089 62.836 151.367 62.836 151.576C62.836 152.052 62.8029 152.842 62.5327 153.257C62.1772 153.802 61.818 154.155 61.2463 154.556C60.6816 154.952 59.9354 155.644 59.1847 155.644C57.7178 155.644 56.1608 155.342 55.4267 153.994C55.1156 153.423 54.5448 152.955 54.5448 152.302C54.5448 151.758 54.3539 151.105 54.5448 150.584C54.7763 149.953 55.3537 149.354 55.1515 149.354C55.2546 149.382 56.1626 148.866 56.5671 149.057Z" stroke="#010101" stroke-opacity="0.5" stroke-linecap="round" stroke-linejoin="round"/>
<path d="M58.2355 148.723C58.8043 148.524 60.1036 148.107 60.4094 147.458C60.6457 146.956 59.8645 146.861 59.4488 146.861C58.9446 146.861 58.3471 147.519 58.213 147.935C58.1384 148.166 58.0675 148.403 57.9939 148.638C57.9585 148.751 58.0058 148.833 58.0304 148.937C58.0492 149.017 58.8206 148.635 58.7916 148.525" stroke="#010101" stroke-opacity="0.5" stroke-linecap="round" stroke-linejoin="round"/>
<path d="M68.5115 159.458L45.8299 159.929C43.5935 159.975 41.8047 161.801 41.8047 164.038C41.8047 166.308 43.645 168.149 45.9151 168.149H68.6016C71.0016 168.149 72.9472 166.203 72.9472 163.803C72.9472 161.368 70.9462 159.408 68.5115 159.458Z" stroke="#010101" stroke-opacity="0.5"/>
<path d="M50.9692 159.809C51.3051 160.3 51.595 160.89 51.9803 161.345C52.1741 161.574 52.143 161.527 52.5187 161.396C53.1459 161.176 53.8565 161.334 54.5109 161.334C55.0854 161.334 55.7533 161.05 56.3116 161.192C56.9584 161.357 57.721 161.043 58.3576 161.029C59.1248 161.011 59.8561 161.079 60.619 161.079C61.079 161.079 61.5274 160.825 61.9531 160.825C62.2001 160.825 62.9042 161.01 62.9223 160.582C62.9311 160.374 63.03 160.172 63.03 159.961C63.03 159.676 62.8494 159.8 62.5454 159.656" stroke="#010101" stroke-opacity="0.5" stroke-linecap="round" stroke-linejoin="round"/>
<path d="M160.505 55.4609C160.921 54.9626 161.716 54.0404 160.601 53.8774C160.349 53.8405 160.114 53.7006 159.866 53.8065C159.104 54.1325 158.396 54.8505 158.396 55.704C158.396 57.0673 159.98 57.3626 161.13 57.3449C163.071 57.3152 163.662 55.5296 164.347 54.0833C165.04 52.6224 165.809 51.1851 166.528 49.7346C167.341 48.0933 168.674 46.7858 169.518 45.1596C169.879 44.4622 170.352 43.8481 170.817 43.2114C171.54 42.2237 172.055 41.2273 172.572 40.1321C172.995 39.2336 173.465 38.4131 173.985 37.5627C174.195 37.2188 174.116 36.6919 174.517 37.0596C174.822 37.3388 175.307 37.5221 175.718 37.5931C177.512 37.9032 179.161 38.2315 181.009 38.0928C182.877 37.9525 184.744 37.6998 186.584 37.3635C187.209 37.2492 186.942 37.3868 186.648 37.745C186.148 38.3526 185.721 38.9965 185.241 39.6122C184.617 40.415 184.397 41.3819 184.027 42.2998C183.621 43.3087 183.137 44.2725 182.749 45.298C181.998 47.2799 180.904 49.0874 179.549 50.7508C178.764 51.7149 177.795 53.3986 176.325 53.3304C174.05 53.2249 175.586 48.9979 176.673 48.1713C177.258 47.7263 177.898 48.2054 177.969 48.8027C178.067 49.6234 177.769 50.7481 176.925 51.1493C176.035 51.5725 175.352 51.5218 176.037 50.4301C176.452 49.7696 176.698 50.4965 176.868 50.1735" stroke="#010101" stroke-opacity="0.5" stroke-width="2" stroke-linecap="round" stroke-linejoin="round"/>
<path d="M331.918 202.712C332.333 202.214 333.128 201.292 332.014 201.129C331.762 201.092 331.526 200.952 331.279 201.058C330.517 201.384 329.809 202.102 329.809 202.956C329.809 204.319 331.392 204.614 332.543 204.596C334.484 204.567 335.074 202.781 335.76 201.335C336.453 199.874 337.222 198.437 337.94 196.986C338.753 195.345 340.087 194.037 340.93 192.411C341.292 191.714 341.764 191.1 342.23 190.463C342.952 189.475 343.467 188.479 343.984 187.384C344.408 186.485 344.878 185.665 345.397 184.814C345.607 184.47 345.529 183.943 345.93 184.311C346.235 184.59 346.72 184.774 347.13 184.845C348.924 185.155 350.574 185.483 352.421 185.344C354.29 185.204 356.157 184.951 357.996 184.615C358.622 184.501 358.355 184.638 358.06 184.997C357.56 185.604 357.133 186.248 356.654 186.864C356.029 187.667 355.809 188.633 355.44 189.551C355.033 190.56 354.55 191.524 354.161 192.55C353.411 194.531 352.316 196.339 350.962 198.002C350.177 198.966 349.207 200.65 347.738 200.582C345.463 200.476 346.999 196.249 348.086 195.423C348.67 194.978 349.31 195.457 349.382 196.054C349.48 196.875 349.181 198 348.338 198.401C347.447 198.824 346.765 198.773 347.45 197.682C347.864 197.021 348.111 197.748 348.281 197.425" stroke="#010101" stroke-opacity="0.5" stroke-width="2" stroke-linecap="round" stroke-linejoin="round"/>
<path d="M313.589 116.821C311.687 113.564 311.799 112.634 312.233 109.357C312.472 107.552 312.563 105.788 313.047 104.012C313.912 100.837 314.192 96.561 311.484 94.0043C306.156 88.9735 296.232 96.1281 299.237 102.511C300.38 104.94 302.356 106.738 303.784 109.03C304.357 109.949 304.677 110.945 305.421 111.803C306.135 112.627 307.021 113.652 307.021 114.674C307.021 115.538 306.749 116.658 307.396 117.421C308.289 118.476 307.972 117.934 309.295 117.934C310.205 117.934 311.546 117.251 312.28 116.697C312.803 116.301 313.084 117.446 313.084 116.344C313.084 115.398 312.762 116.185 313.421 116.185" stroke="#010101" stroke-opacity="0.5" stroke-linecap="round" stroke-linejoin="round"/>
<path d="M309.379 119.842C311.18 119.335 316.165 118.203 315.011 119.603C313.619 121.293 313.024 120.446 311.316 120.804C310.442 120.988 309.59 123.533 310.558 123.587C311.939 123.664 312.856 121.909 314.263 121.909C315.544 121.909 315.452 123.5 314.684 124.064C313.67 124.809 312.503 124.008 311.821 125.168C310.742 127.001 313.689 126.703 314.525 126.272C315.367 125.838 316.169 125.161 316.789 124.771" stroke="#010101" stroke-opacity="0.5" stroke-linecap="round" stroke-linejoin="round"/>
<path d="M313.59 116.304C313.567 116.442 313.543 117.377 313.148 117.377C312.935 117.377 312.837 117.255 312.642 117.357C312.414 117.477 312.199 117.76 311.98 117.925C311.788 118.07 311.215 118.052 311.106 118.234C310.926 118.531 310.562 118.693 310.221 118.729C309.78 118.775 309.617 118.984 309.148 118.885C309.004 118.855 308.99 118.768 308.855 118.768C308.648 118.768 308.558 118.862 308.402 118.698C308.228 118.516 307.945 118.431 307.861 118.154C307.748 117.779 307.331 117.581 307.948 117.814" stroke="#010101" stroke-opacity="0.5" stroke-linecap="round" stroke-linejoin="round"/>
<path d="M305.464 100.563C306.217 100.567 306.839 100.613 307.096 101.367C307.271 101.88 307.274 102.384 307.274 102.917C307.274 103.435 306.937 103.852 306.937 104.339C306.937 104.984 307.483 104.878 307.945 105.075C308.382 105.26 308.698 105.415 308.935 105.83C309.169 106.241 308.992 107.035 308.96 107.482C308.933 107.866 308.74 108.683 309.021 109.008C309.174 109.184 310.01 109.457 309.463 109.069" stroke="#010101" stroke-opacity="0.5" stroke-linecap="round" stroke-linejoin="round"/>
<path d="M299.106 107.758C298.503 108.136 297.888 108.453 297.214 108.692C296.931 108.792 296.559 108.97 296.622 108.553" stroke="#010101" stroke-opacity="0.5" stroke-linecap="round" stroke-linejoin="round"/>
<path d="M296.917 102.272C295.848 102.515 294.786 102.789 293.726 103.058C293.55 103.103 293.955 102.682 293.97 102.67" stroke="#010101" stroke-opacity="0.5" stroke-linecap="round" stroke-linejoin="round"/>
<path d="M296.622 97.0649C295.515 96.913 294.411 96.7245 293.31 96.5393C292.803 96.4541 292.588 96.5168 292.875 96.1109" stroke="#010101" stroke-opacity="0.5" stroke-linecap="round" stroke-linejoin="round"/>
<path d="M302.601 91.5398C301.726 91.3947 300.968 91.2549 300.177 90.8817C299.807 90.7071 299.451 90.4971 299.064 90.3562C298.604 90.1886 298.594 90.2396 299.106 89.9498" stroke="#010101" stroke-opacity="0.5" stroke-linecap="round" stroke-linejoin="round"/>
<path d="M310.221 87.9622C310.349 88.8059 310.307 89.3112 309.945 90.0756C309.75 90.4877 309.586 91.0086 309.489 91.4536C309.456 91.6069 309.437 91.6941 309.328 91.8091C309.287 91.8522 309.437 91.3403 309.463 91.2615" stroke="#010101" stroke-opacity="0.5" stroke-linecap="round" stroke-linejoin="round"/>
<path d="M316.663 91.341C316.384 92.2196 315.985 93.0623 315.746 93.9424C315.625 94.3877 315.701 94.4147 315.905 93.9645" stroke="#010101" stroke-opacity="0.5" stroke-linecap="round" stroke-linejoin="round"/>
<path d="M319.358 97.6612C318.401 98.4429 317.617 99.4131 316.874 100.373C316.78 100.493 316.673 100.536 316.569 100.634C316.335 100.855 316.74 100.355 316.789 100.285" stroke="#010101" stroke-opacity="0.5" stroke-linecap="round" stroke-linejoin="round"/>
<path d="M104.978 177.396C106.378 183.349 107.954 189.316 108.88 195.359C109.397 198.735 108.262 193.864 108.12 193.175C107.815 191.684 107.464 190.363 107.464 188.839C107.464 185.771 107.377 182.668 107.136 179.596C106.968 177.446 104.17 171.044 107.706 176.385C111.312 181.832 113.857 187.853 116.304 193.794C116.642 194.613 117.109 195.389 117.479 196.174C117.681 196.603 113.896 193.111 112.437 192.36" stroke="#010101" stroke-opacity="0.5" stroke-width="2" stroke-linecap="round" stroke-linejoin="round"/>
<path d="M102.802 190.599C106.843 189.077 115.752 186.206 118.342 181.927C119.427 180.135 119.215 180.964 116.166 181.504" stroke="#010101" stroke-opacity="0.5" stroke-width="2" stroke-linecap="round" stroke-linejoin="round"/>
<path d="M114.923 170.647C118.042 176.475 120.3 182.68 121.156 189.149C121.236 189.748 121.383 190.406 121.83 190.828C121.913 190.906 120.334 188.117 119.896 187.372" stroke="#010101" stroke-opacity="0.5" stroke-width="2" stroke-linecap="round" stroke-linejoin="round"/>
<path d="M114.923 170.354C117.341 171.721 126.222 176.772 120.431 179.988C119.923 180.27 119.327 180.531 118.964 180.982C118.194 181.938 118.101 182.219 118.653 180.917" stroke="#010101" stroke-opacity="0.5" stroke-width="2" stroke-linecap="round" stroke-linejoin="round"/>
<path d="M123.004 167.42C124.034 174.008 125.801 181.246 125.801 187.959C125.801 189.441 125.538 186.696 125.179 185.905" stroke="#010101" stroke-opacity="0.5" stroke-width="2" stroke-linecap="round" stroke-linejoin="round"/>
<path d="M130.152 179.156C131.858 183.959 132.735 186.788 127.734 188.187C126.026 188.665 128.09 186.322 128.529 186.035C130.025 185.057 131.514 181.91 129.841 180.33C129.175 179.701 127.582 180.495 127.113 179.743C126.422 178.634 127.97 176.535 128.909 175.994C131.607 174.437 131.267 176.631 130.152 175.929" stroke="#010101" stroke-opacity="0.5" stroke-width="2" stroke-linecap="round" stroke-linejoin="round"/>
<path d="M223.51 90.0508C224.54 95.1683 228.781 110.111 226.314 105.452C226.048 104.95 225.826 104.525 225.804 103.955C225.721 101.848 225.555 99.6447 224.784 97.6446C224.14 95.9716 224.274 94.2374 224.274 92.4573C224.274 92.1007 223.633 89.2947 223.694 89.2754C224.343 89.0712 227.019 92.1419 227.503 92.6712C229.95 95.3483 232.424 98.4248 234.173 101.562C235.073 103.176 235.344 103.755 233.196 104.008" stroke="#010101" stroke-opacity="0.5" stroke-width="2" stroke-linecap="round" stroke-linejoin="round"/>
<path d="M223.255 100.399C225.647 99.253 227.925 98.3373 230.392 97.511" stroke="#010101" stroke-opacity="0.5" stroke-width="2" stroke-linecap="round" stroke-linejoin="round"/>
<path d="M230.137 90.2915C232.587 93.7553 234.919 97.4411 237.77 100.639C238.177 101.096 239.03 101.924 239.03 100.853C239.03 99.3921 238.173 97.8821 237.784 96.4949C237.162 94.276 236.583 92.047 236.056 89.8102C235.548 87.651 235.906 88.4572 236.765 90.0776C238.187 92.7629 239.684 95.2087 241.664 97.5912C242.998 99.1963 243.137 98.3024 243.137 96.896C243.137 94.3412 241.816 92.2403 240.843 89.9439C239.804 87.491 239.873 84.1424 238.69 81.909C238.23 81.0404 238.167 83.793 238.039 84.7566" stroke="#010101" stroke-opacity="0.5" stroke-width="2" stroke-linecap="round" stroke-linejoin="round"/>
<path d="M243.901 81.6282C243.966 81.9109 244.915 88.9171 246.592 88.1257C247.326 87.779 247.507 86.718 248.263 86.3609C249.488 85.7824 250.813 86.807 251.293 87.8048C252.564 90.4433 251.101 93.4992 248.801 95.1045C245.614 97.3283 246.705 93.3249 246.705 92.2167" stroke="#010101" stroke-opacity="0.5" stroke-width="2" stroke-linecap="round" stroke-linejoin="round"/>
<path d="M245.431 81.147C244.972 82.3304 244.138 87.8248 243.887 85.6926C243.732 84.3764 244.007 83.3755 244.156 82.1096C244.51 79.1066 246.944 81.5223 245.941 79.9438" stroke="#010101" stroke-opacity="0.5" stroke-width="2" stroke-linecap="round" stroke-linejoin="round"/>
<path d="M228.432 239.213C228.347 239.066 224.669 233.087 224.988 232.915C225.429 232.677 226.253 232.909 226.772 232.725C228.306 232.182 229.542 231.06 230.805 230.133C232.134 229.157 233.953 236.81 234.358 238.422C234.847 240.372 236.121 242.965 233.737 244.09C231.588 245.105 228.761 244.798 226.415 244.749C222.588 244.669 219.943 238.738 219.496 235.786C219.171 233.637 216.018 226.738 219.403 225.358C220.309 224.989 221.848 225.241 222.831 225.241C224.238 225.241 225.466 224.45 226.896 224.45C229.172 224.45 229.86 227.134 227.873 224.186" stroke="#010101" stroke-opacity="0.5" stroke-width="2" stroke-linecap="round" stroke-linejoin="round"/>
<path d="M234.854 226.295C235.251 227.66 236.527 235.236 239.88 233.296C240.518 232.927 240.983 232.031 241.214 231.392C241.832 229.686 241.962 228.261 240.578 226.954C239.542 225.976 237.539 223.977 236.033 223.923C232.297 223.787 235.593 227.737 235.133 227.086" stroke="#010101" stroke-opacity="0.5" stroke-width="2" stroke-linecap="round" stroke-linejoin="round"/>
<path d="M235.412 214.168C238.171 218.285 242.332 222.813 244.007 227.555C244.22 228.16 244.228 228.571 244.627 229.137C245.23 229.99 245.515 231.229 246.085 229.927C246.912 228.043 248.794 226.37 250.274 224.919C252.1 223.128 252.349 223.659 249.095 223.659" stroke="#010101" stroke-opacity="0.5" stroke-width="2" stroke-linecap="round" stroke-linejoin="round"/>
<path d="M254.68 212.85C254.333 213.589 249.073 223.417 254.152 221.184C255.163 220.739 256.194 220.048 256.061 218.914C255.932 217.82 254.964 216.961 254.463 216.014C254.179 215.479 253.046 212.9 253.439 213.641C254.605 215.843 256.171 219.765 257.907 221.404C259.928 223.312 261.139 221.306 259.148 220.232" stroke="#010101" stroke-opacity="0.5" stroke-width="2" stroke-linecap="round" stroke-linejoin="round"/>
<path d="M257.751 213.905C265.524 225.544 255.689 212.484 257.953 210.199C260.144 207.988 262.733 212.234 263.553 213.583C264.982 215.931 266.389 222.023 264.174 215.75" stroke="#010101" stroke-opacity="0.5" stroke-width="2" stroke-linecap="round" stroke-linejoin="round"/>
<path d="M267.525 203.887C267.393 204.327 263.224 215.403 266.346 214.373C267.672 213.936 269.004 212.946 269.712 211.81C270.529 210.5 270.909 208.702 270.317 207.256C269.913 206.269 269.477 205.216 268.921 204.297C267.599 202.114 271.161 208.861 272.225 211.166C273.784 214.542 277.539 226.375 268.688 224.025C264.828 223 268.463 217.332 268.083 217.332" stroke="#010101" stroke-opacity="0.5" stroke-width="2" stroke-linecap="round" stroke-linejoin="round"/>
<path d="M157.624 149.419C159.011 149.059 160.194 148.696 161.17 147.66C161.555 147.251 161.607 146.73 161.804 146.234C162.059 145.591 161.741 144.769 161.523 144.152C161.349 143.658 162.302 143.381 162.642 143.36C163.226 143.325 163.673 143.676 164.235 143.707C164.91 143.744 165.63 143.949 166.098 144.446C166.416 144.783 166.841 144.863 167.192 145.155C167.526 145.433 167.789 145.918 168.03 146.274C168.728 147.302 168.925 148.503 169.128 149.68C169.226 150.245 169.284 150.859 169.184 151.43C169.064 152.11 169.191 152.765 168.907 153.417C168.71 153.869 168.395 154.466 167.947 154.732C167.488 155.005 167.061 155.103 166.943 155.67C166.698 156.854 167.327 158.013 167.085 159.208C166.87 160.268 165.384 160.431 164.467 160.601C163.833 160.718 162.681 160.901 162.07 160.588C160.933 160.004 160.109 159.274 159.265 158.345C158.518 157.521 158.235 156.317 158.136 155.265C158.035 154.19 158.035 153.023 158.06 151.936C158.077 151.215 158.299 150.491 158.372 149.772C158.431 149.184 158.629 149.136 158.309 149.89" stroke="#010101" stroke-opacity="0.5" stroke-linecap="round" stroke-linejoin="round"/>
<path d="M165.665 144.063C166.134 142.922 166.65 141.781 167.009 140.604C167.17 140.075 167.209 139.515 167.411 138.999C167.645 138.399 167.761 137.72 167.861 137.093C167.933 136.642 167.968 135.846 168.405 135.562C168.723 135.356 168.905 134.882 169.246 134.634C169.685 134.315 170.307 134.017 170.618 133.591C170.923 133.172 171.248 132.307 170.992 131.822C170.849 131.553 170.869 131.263 170.728 130.998C170.546 130.653 170.382 130.374 170.244 130.001C170.123 129.674 169.743 129.023 170.185 128.791C171.267 128.224 171.341 129.117 171.677 129.932C171.851 130.353 171.877 130.868 172.037 131.305C172.147 131.605 172.342 131.388 172.491 131.56C172.716 131.819 172.727 132.144 172.896 132.424C173.15 132.843 172.852 133.694 172.723 134.104C172.485 134.864 172.239 135.552 171.885 136.282C170.974 138.161 169.489 139.744 168.47 141.565C168.083 142.259 167.773 142.957 167.584 143.723C167.476 144.159 167.161 144.574 167.161 145.034C167.161 145.454 167.051 145.67 167.286 145.005" stroke="#010101" stroke-opacity="0.5" stroke-linecap="round" stroke-linejoin="round"/>
<path d="M170.527 129.88C169.734 129.995 168.868 130.039 168.159 130.374C168.061 130.42 168.213 130.3 168.283 130.292C169.234 130.186 170.272 129.386 171.137 128.997C171.781 128.708 172.661 128.056 173.395 128.056C173.608 128.056 172.689 128.614 172.585 128.703" stroke="#010101" stroke-opacity="0.5" stroke-linecap="round" stroke-linejoin="round"/>
<path d="M169.717 131.175C170.6 130.69 172.139 130.164 172.785 129.35C172.848 129.271 172.895 129.164 172.986 129.115C173.307 128.942 172.74 129.135 172.647 129.174" stroke="#010101" stroke-opacity="0.5" stroke-linecap="round" stroke-linejoin="round"/>
<path d="M170.34 131.94C171.401 131.556 173.338 131.216 173.921 130.115C174.005 129.956 173.818 129.998 173.706 129.998" stroke="#010101" stroke-opacity="0.5" stroke-linecap="round" stroke-linejoin="round"/>
<path d="M171.463 131.822C171.395 133.172 171.409 134.544 170.593 135.7C170.195 136.264 169.919 136.638 169.78 137.299C169.63 138.004 169.466 138.593 169.125 139.237C168.788 139.873 168.394 140.393 168.062 141.003C167.89 141.319 167.467 141.624 167.549 142.003C167.591 142.195 167.49 142.367 167.425 142.546C167.23 143.077 166.866 143.546 166.524 144.004C166.292 144.316 166.295 144.875 166.6 144.299" stroke="#010101" stroke-opacity="0.5" stroke-linecap="round" stroke-linejoin="round"/>
<path d="M166.413 142.71C166.976 142.826 167.831 143.183 168.408 143.183C168.419 143.183 167.918 142.61 167.847 142.533" stroke="#010101" stroke-opacity="0.5" stroke-linecap="round" stroke-linejoin="round"/>
<path d="M166.787 140.297C167.583 140.617 168.38 140.935 169.17 141.268C169.355 141.346 169.344 141.357 169.281 141.297C169.144 141.168 169.027 141.028 168.907 140.885" stroke="#010101" stroke-opacity="0.5" stroke-linecap="round" stroke-linejoin="round"/>
<path d="M167.535 138.708C168.493 138.989 169.45 139.292 170.42 139.538C170.529 139.566 170.681 139.621 170.576 139.519C170.367 139.315 170.126 139.134 169.904 138.943" stroke="#010101" stroke-opacity="0.5" stroke-linecap="round" stroke-linejoin="round"/>
<path d="M168.034 136.707C169.125 137.21 170.211 137.753 171.331 138.201C171.515 138.275 171.576 138.329 171.539 138.191C171.487 138.005 171.411 137.828 171.338 137.648" stroke="#010101" stroke-opacity="0.5" stroke-linecap="round" stroke-linejoin="round"/>
<path d="M169.405 135.294C169.504 135.339 172.523 136.885 172.273 136.295" stroke="#010101" stroke-opacity="0.5" stroke-linecap="round" stroke-linejoin="round"/>
<path d="M170.029 134.353C170.94 134.555 171.86 134.74 172.771 134.884" stroke="#010101" stroke-opacity="0.5" stroke-linecap="round" stroke-linejoin="round"/>
<path d="M171.026 133.411C171.442 133.431 171.857 133.451 172.273 133.472" stroke="#010101" stroke-opacity="0.5" stroke-linecap="round" stroke-linejoin="round"/>
<path d="M162.798 151.067C162.364 151.229 159.696 151.855 159.681 152.551C159.675 152.823 159.681 153.095 159.715 153.365C159.823 154.203 160.44 154.642 161.198 155.042C162.16 155.551 163.196 155.567 164.245 155.278C165.242 155.003 165.891 153.961 165.492 153.068C165.409 152.882 165.696 152.845 165.509 152.629C165.328 152.42 165.209 152.542 164.917 152.597" stroke="#010101" stroke-opacity="0.5" stroke-linecap="round" stroke-linejoin="round"/>
<path d="M161.489 153.244C161.985 152.059 162.603 150.876 162.891 149.625C162.967 149.297 163.06 149.022 163.248 148.726C163.646 148.1 163.995 147.433 164.232 146.738C164.456 146.078 164.47 145.428 164.765 144.782C164.87 144.552 165.499 143.863 165.229 144.181" stroke="#010101" stroke-opacity="0.5" stroke-linecap="round" stroke-linejoin="round"/>
<path d="M166.413 144.77C166.182 146.133 165.834 147.437 165.589 148.785C165.453 149.531 165.229 150.156 165.229 150.942C165.229 151.505 165.442 151.974 165.305 152.538C165.148 153.188 165.006 152.867 164.73 152.42" stroke="#010101" stroke-opacity="0.5" stroke-linecap="round" stroke-linejoin="round"/>
<path d="M165.79 144.77C165.356 145.621 164.418 147.02 164.418 148.095C164.418 148.706 164.46 149.354 164.415 149.975C164.361 150.712 163.751 151.668 163.386 152.303C163.265 152.513 163.107 152.676 163.033 152.904C162.94 153.189 163.006 153.207 162.798 152.891" stroke="#010101" stroke-opacity="0.5" stroke-linecap="round" stroke-linejoin="round"/>
<path d="M161.302 152.008C162.363 152.725 164.237 154.188 165.541 152.924C165.744 152.726 166.037 152.306 166.15 152.054C166.304 151.71 165.805 152.002 165.478 152.067" stroke="#010101" stroke-opacity="0.5" stroke-linecap="round" stroke-linejoin="round"/>
<path d="M162.548 150.95C163.154 150.931 164.378 151.086 164.966 150.799C164.985 150.789 164.92 150.805 164.903 150.818C164.845 150.862 164.725 150.79 164.668 150.772" stroke="#010101" stroke-opacity="0.5" stroke-linecap="round" stroke-linejoin="round"/>
<path d="M163.234 148.771C163.678 148.883 165.286 149.531 165.353 148.831" stroke="#010101" stroke-opacity="0.5" stroke-linecap="round" stroke-linejoin="round"/>
<path d="M163.982 147.006C164.533 147.346 166.768 148.917 166.413 147.241" stroke="#010101" stroke-opacity="0.5" stroke-linecap="round" stroke-linejoin="round"/>
<path d="M164.605 146.182C165.166 146.32 165.728 146.458 166.289 146.595" stroke="#010101" stroke-opacity="0.5" stroke-linecap="round" stroke-linejoin="round"/>
<path d="M167.348 146.182C168.042 146.799 169.427 148.235 169.468 149.314C169.501 150.195 169.468 151.046 169.468 151.936C169.468 152.584 169.599 153.276 169.53 153.892C169.44 154.7 168.125 154.71 168.439 155.66C168.544 155.978 168.453 156.165 168.747 156.393C169.002 156.589 169.186 156.817 169.281 157.128C169.501 157.855 169.062 158.512 168.533 159.012C168.201 159.325 167.771 159.954 167.379 160.159C167.186 160.261 166.791 160.189 166.569 160.189C166.364 160.189 165.948 160.315 165.762 160.395C165.489 160.512 165.14 160.305 164.792 160.424" stroke="#010101" stroke-opacity="0.5" stroke-linecap="round" stroke-linejoin="round"/>
<path d="M157.624 149.595C157.875 150.383 158.062 151.039 158.483 151.714C158.655 151.991 158.632 152.243 158.555 152.567C158.467 152.944 158.175 153.828 158.403 154.215C158.753 154.81 158.746 155.44 158.746 156.099C158.746 156.733 159.797 157.009 160.141 157.334C160.653 157.818 160.431 158.435 161.274 158.646C161.458 158.692 161.746 158.694 161.89 158.806C162 158.89 162.128 159.101 162.271 159.126C162.568 159.177 162.966 159.121 163.234 159.234C163.458 159.328 163.622 159.464 163.826 159.571C164.052 159.689 164.36 159.556 164.605 159.672C165.444 160.068 165.069 159.692 164.481 159.247" stroke="#010101" stroke-opacity="0.5" stroke-linecap="round" stroke-linejoin="round"/>
<path d="M95.5893 120.037C93.9235 122.049 86.7714 130.101 92.8654 131.923C94.7567 132.489 97.2183 131.189 99.2569 131.376C102.139 131.642 103.76 133.955 104.469 136.358C105.285 139.124 100.78 144.043 102.946 145.531C106.656 148.078 111.998 143.77 115.064 147.191C116.802 149.129 114.974 151.946 116.051 147.373" stroke="#010101" stroke-opacity="0.5" stroke-linecap="round" stroke-linejoin="round"/>
<path d="M179.244 88.6913C180.849 90.6996 184.67 95.2238 186.107 97.8034C187.33 99.9991 185.789 99.9111 184.477 99.0386C182.908 97.9953 183.129 95.7764 183.576 94.2395C185.087 89.0513 194.869 84.2816 195.973 92.2551C196.361 95.0559 193.709 99.7653 190.096 98.6538C185.327 97.1866 185.631 90.3142 189.238 87.7598C192.928 85.1471 198.976 88.1493 198.976 92.4171C198.976 97.1553 193.011 98.6223 190.697 94.442C188.594 90.6427 192.32 86.6683 196.316 86.0994C197.786 85.8902 201.582 87.493 198.933 88.3268" stroke="#010101" stroke-opacity="0.5" stroke-linecap="round" stroke-linejoin="round"/>
<path d="M259.931 124.775C257.431 127.12 249.53 132.588 256.177 134.717C260.045 135.956 263.626 133.925 266.022 131.154C268.667 128.095 269.115 123.259 264.907 121.272C261.634 119.727 258.813 117.245 256.07 121.13" stroke="#010101" stroke-opacity="0.5" stroke-linecap="round" stroke-linejoin="round"/>
<path d="M345.251 156.85C340.477 159.534 333.229 162.777 340.618 165.314C341.754 165.704 342.494 165.45 343.492 164.787C347.186 162.337 347.404 161.355 347.181 157.579C347.034 155.078 343.161 155.649 341.391 156.485C338.779 157.718 336.958 160.185 335.9 162.681C334.477 166.041 341.834 165.835 342.849 161.791C343.485 159.255 340.413 155.653 338.302 158.753C335.505 162.861 339.773 166.534 342.463 162.236C345.039 158.12 339.019 156.422 337.401 161.224C335.273 167.537 347.922 160.682 343.321 158.51C340.579 157.216 335.948 165.436 341.004 163.39C347.144 160.906 340.275 157.245 340.275 163.046C340.275 167.753 348.522 160.922 343.149 159.077C341.921 158.655 340.708 162.361 341.584 163.188C343.106 164.625 345.751 160.903 345.616 159.563C345.036 153.811 339.072 168.435 346.173 161.73C347.796 160.198 347.729 157.43 345.037 159.057C343.448 160.017 342.442 164.092 345.444 163.147C348.327 162.24 348.326 157.199 345.23 158.368C343.34 159.082 342.655 161.608 340.618 161.224" stroke="#010101" stroke-opacity="0.5" stroke-linecap="round" stroke-linejoin="round"/>
<path d="M303.556 194.392C302.759 195.222 290.038 210.04 296.435 202.491C297.898 200.765 299.242 199.066 301.239 197.854C302.471 197.107 303.656 196.646 304.714 195.647C305.87 194.556 304.231 194.627 303.963 196.902C303.73 198.883 303.909 207.533 303.556 207.513C301.171 207.381 299.608 205.165 297.4 204.435C296.218 204.044 292.711 204.607 293.69 203.868C296.081 202.062 303.405 196.883 301.239 198.927C299.599 200.476 296.228 206.296 297.379 204.395C298.197 203.042 300.411 198.636 300.081 199.373C299.402 200.891 298.221 203.491 298.323 205.164C298.419 206.753 301.76 202.844 301.969 202.451C303.518 199.526 300.313 206.104 301.454 204.536C302.482 203.125 305.957 199.536 303.47 203.058C302.926 203.829 306.047 200.273 305.486 201.033C305.324 201.254 303.909 203.494 304.736 202.714C307.695 199.92 303.334 202.825 302.784 202.046" stroke="#010101" stroke-opacity="0.5" stroke-linecap="round" stroke-linejoin="round"/>
<path d="M277.69 254.896C279.041 253.079 286.764 245.063 280.414 244.71C279.34 244.651 277.127 244.322 276.231 245.014C274.1 246.66 275.024 251.101 277.904 251.595C281.723 252.251 285.303 247.32 281.164 245.419C276.841 243.433 266.635 251.409 271.041 254.693C279.715 261.159 287.559 242.37 276.338 245.075C266.161 247.528 275.127 257.426 279.749 251.048C284.697 244.221 269.439 244.162 272.135 251.798C273.464 255.564 277.828 253.746 278.612 250.704C279.761 246.245 275.063 248.086 274.987 251.17C274.906 254.475 280.299 248.495 277.068 248.76C274.732 248.952 274.502 251.98 272.671 251.98" stroke="#010101" stroke-opacity="0.5" stroke-linecap="round" stroke-linejoin="round"/>
<path d="M124.036 220.634C124.816 223.974 126.353 234.077 126.353 230.658C126.353 228.297 124.443 226.094 124.058 223.733C123.923 222.907 124.201 220.467 123.457 219.905C122.949 219.521 127.756 223.054 129.034 223.733C131.365 224.971 133.036 227.283 135.061 224.826C136.033 223.646 138.892 223.483 139.286 223.186C142.145 221.027 141.882 217.805 142.546 214.985C142.783 213.98 142.181 218.418 142.181 219.723C142.181 221.393 142.5 223.603 142.975 225.17C143.649 227.397 143.379 221.114 142.739 219.905C141.699 217.943 141.795 216.201 141.795 214.074C141.795 213.234 148.249 223.759 147.114 224.563C146.64 224.899 140.321 223.253 138.406 223.834C136.758 224.334 135.252 224.918 133.688 225.656C133.26 225.858 132.555 226.593 132.83 226.385C133.81 225.645 136.809 223.621 135.618 223.996C133.982 224.511 132.376 226.005 130.9 226.831C128.117 228.387 127.217 228.17 126.052 230.84C125.885 231.225 127.962 231.176 128.369 231.285C131.291 232.074 133.127 229.925 135.704 228.937C139.031 227.661 142.856 225.041 146.428 224.644C149.125 224.344 145.024 223.451 144.884 223.186" stroke="#010101" stroke-opacity="0.5" stroke-linecap="round" stroke-linejoin="round"/>
<path d="M271.513 80.3082C278.789 78.1062 290.573 75.5737 297.079 70.5481C298.259 69.6362 300.088 68.7621 299.674 67.0045C298.12 60.4019 294.738 58.8534 288.071 59.5529C284.372 59.9408 280.823 63.1615 277.39 64.4734C273.855 65.824 270.319 67.5985 267.094 69.5357C263.831 71.4962 265.722 72.4674 265.722 75.8534C265.722 77.7153 266.9 80.3082 269.003 80.3082C269.962 80.3082 272.71 79.5792 269.99 79.5792C267.855 79.5792 264.541 79.8847 262.633 78.9312C261.177 78.2032 264.052 76.7696 264.735 76.6836C267.175 76.3764 261.939 78.6299 261.411 78.7895C260.324 79.1178 265.332 75.5349 262.547 76.3799C259.529 77.2958 264.009 74.8397 264.95 74.3954C266.012 73.894 265.085 74.6879 265.336 74.274C265.737 73.6117 268.057 71.1785 265.958 73.1603C265.255 73.8237 267.544 72.0287 268.317 71.4391C269.773 70.3287 267.926 72.0134 267.566 72.2895C265.91 73.5621 265.522 72.5353 264.178 73.0995C263.615 73.3354 262.247 74.1176 262.247 73.2007C262.247 71.6188 268.159 70.8982 269.239 70.8519C275.852 70.5681 280.48 67.8141 286.569 66.3768C289.5 65.6852 292.703 64.689 295.449 63.4609C297.485 62.5501 301.565 59.6986 303.728 60.2818C304.577 60.511 291.468 67.7125 295.234 65.3644C298.35 63.422 301.923 62.058 297.25 65.7086C293.507 68.6331 300.092 65.2266 300.618 65.4251C301.562 65.7816 294.805 69.4251 299.953 67.1868C301.922 66.3307 303.556 66.2884 303.556 64.2709C303.556 61.5323 304.35 58.2864 300.661 59.5529C296.404 61.0143 292.987 64.1381 288.585 65.3644C285.551 66.2097 282.595 67.2772 279.62 68.2802C276.168 69.4441 269.92 70.7455 267.459 73.5855C266.147 75.099 263.811 80.9974 268.639 78.4453C273.067 76.1039 273.772 71.3671 276.146 67.6322C277.324 65.7772 274.091 71.5504 273.615 73.6665C273.067 76.1003 275.493 78.9011 278.269 78.4453C281.314 77.9453 284.517 73.9751 285.604 71.5606C290.828 59.9551 281.352 71.2113 284.038 73.7475C286.889 76.439 291.234 69.3089 291.803 67.5513C292.488 65.4334 292.891 62.8228 293.711 60.8083C294.776 58.1955 287.98 61.1382 287.341 61.436C283.807 63.0853 281.339 65.2854 278.934 68.1992C278.063 69.2539 274.569 74.2184 276.961 75.3472C280.165 76.8599 284.099 72.158 284.189 69.7179C284.49 61.4522 277.282 65.6884 272.928 68.9282C270.238 70.9301 272.575 74.9312 273.057 74.4764" stroke="#010101" stroke-opacity="0.5" stroke-linecap="round" stroke-linejoin="round"/>
<path d="M173.839 277.858C173.671 277.985 167.318 283.158 167.318 281.685C167.318 280.823 168.021 279.9 168.648 279.337C169.887 278.222 174.782 277.365 173.603 280.086C172.812 281.911 169.581 284.6 168.67 281.159C168.291 279.73 170.889 276.863 172.466 278.081C174.205 279.425 170.466 281.136 169.292 280.531C167.194 279.451 169.713 275.604 171.737 276.4C173.853 277.233 170.942 279.509 169.978 279.964C167.723 281.029 168.039 279.308 166.889 278.223" stroke="#010101" stroke-opacity="0.5" stroke-linecap="round" stroke-linejoin="round"/>
<path d="M69.2152 277.494C71.4406 280.956 75.6792 284.548 71.36 287.699C70.2459 288.512 63.674 291.762 64.0677 287.983C64.5471 283.381 71.8111 283.279 72.2608 279.154C72.7055 275.076 62.3873 276.612 60.0354 273.849C58.5621 272.118 57.3739 268.282 57.719 266.073C57.8535 265.213 60.1639 263.544 59.9282 265.101C59.4967 267.953 49.7578 275.258 55.5314 277.656C59.4022 279.264 60.4009 275.193 63.2526 274.214C69.1267 272.197 60.3357 287.154 60.3357 283.326" stroke="#010101" stroke-opacity="0.5" stroke-linecap="round" stroke-linejoin="round"/>
<path d="M258.386 324.877C256.598 328.871 252.982 341.18 252.982 336.844C252.982 336.168 253.12 335.634 253.368 335.001C254.53 332.032 255.875 329.268 257.829 326.659C258.895 325.234 260.165 321.063 261.689 324.229C262.401 325.706 264.435 329.818 263.577 331.437C262.5 333.47 259.158 334.637 256.928 334.718C256.347 334.739 250.257 335.494 252.231 333.786C254.55 331.779 256.794 325.675 260.295 325.261C260.836 325.198 261.965 325.539 262.44 325.788C263.277 326.227 262.258 327.019 261.861 327.631C261.385 328.364 257.621 333.32 257.614 333.098C257.508 329.776 261.117 324.954 263.062 322.447C263.76 321.548 260.048 327.651 259.201 329.028C258.546 330.093 259.401 332.358 256.456 331.802" stroke="#010101" stroke-opacity="0.5" stroke-linecap="round" stroke-linejoin="round"/>
<path d="M138.707 31.832C136.984 38.1938 135.449 44.2553 134.825 50.7446C134.762 51.3937 134.328 51.8134 134.76 52.324C135.404 53.084 137.108 48.2518 137.763 46.958C139.84 42.8571 142.181 41.2388 142.181 36.2058C142.181 35.4795 142.181 31.2996 142.181 34.0594C142.181 36.4023 142.652 38.718 142.482 41.0655C142.353 42.8399 140.549 47.6284 141.881 46.3708C143.937 44.4297 142.29 34.6973 139.071 34.4441C134.678 34.0985 132.56 43.0883 132.058 45.8848C131.474 49.1385 133.903 50.5006 136.583 47.9705C140.241 44.517 141.035 37.4171 137.892 33.3709C133.574 27.812 130.74 37.8421 130.385 40.2961C129.581 45.8471 132.865 47.6259 136.755 43.6777C138.186 42.2255 141.071 39.7146 140.465 37.4612C139.661 34.4638 134.968 37.3744 134.031 38.6762C132.703 40.522 132.72 45.1196 134.867 46.4316C136.873 47.6565 138.824 42.5808 138.599 41.3085C137.647 35.9127 126.874 44.4783 132.229 47.5453C136.891 50.2145 139.981 38.2727 134.245 39.7494C132.648 40.1606 128.855 44.2244 132.144 44.2244" stroke="#010101" stroke-opacity="0.5" stroke-linecap="round" stroke-linejoin="round"/>
<path d="M36.3996 135.71C34.6648 140.35 33.4158 143.312 29.0215 145.915C27.9182 146.569 26.4601 147.725 26.2333 149.034C25.7486 151.83 30.4202 154.911 33.0752 154.076C38.6694 152.315 30.2041 147.088 29.3003 145.571C27.7267 142.93 33.4141 138.185 36.035 139.577C38.0751 140.661 38.9794 144.436 37.7723 146.28C36.0138 148.965 32.2341 149.072 29.2789 148.649C26.9253 148.312 22.2111 148.77 23.5951 152.071C25.327 156.202 33.5006 154.037 34.7267 150.532C35.9203 147.12 29.4582 145.834 30.8446 142.635C31.7968 140.437 34.8036 137.694 37.472 137.694C40.6683 137.694 37.4763 143.331 37.0002 144.214C34.8975 148.116 31.6803 148.505 27.6059 149.56C19.9375 151.545 28.1986 151.825 28.6783 149.56" stroke="#010101" stroke-opacity="0.5" stroke-linecap="round" stroke-linejoin="round"/>
<path d="M27.1341 185.644C26.3146 188.557 23.8916 193.53 24.1314 196.7C24.2438 198.185 24.6736 193.764 24.8606 192.286C25.217 189.468 25.6246 186.286 27.2199 183.822C27.5031 183.384 34.0508 191.1 34.6409 192.367C36.2202 195.755 34.243 195.11 31.7669 196.214C30.3907 196.827 21 199.957 21 199.13C21 198.263 22.7704 196.501 23.1877 195.768C24.4939 193.474 25.8954 190.594 26.4478 188.033C27.6276 182.565 26.7481 193.818 26.7481 194.675C26.7481 195.195 26.9622 198.239 25.6757 198.239C24.0656 198.239 26.7642 195.378 27.3057 193.946C27.88 192.428 30.1659 187.954 29.6007 186.353C28.8001 184.085 28.3995 191.031 28.3138 193.42C28.2556 195.039 27.4258 197.741 28.7642 195.121C29.1907 194.285 30.5674 190.861 30.5444 191.111C30.3503 193.219 29.4505 195.391 29.4505 197.51C29.4505 199.679 30.6623 192.697 32.7535 191.8C33.2735 191.577 32.539 195.692 32.539 196.295C32.539 197.392 33.6543 192.079 33.6543 193.177C33.6543 193.482 33.1916 195.33 32.8393 194.756C31.3955 192.402 30.3092 190.947 27.3486 190.099C26.0002 189.713 21.7143 189.977 23.1234 189.977C24.0496 189.977 25.5042 186.934 26.5336 187.73C27.8993 188.785 26.025 192.152 25.5899 193.298C24.8774 195.174 24.4314 192.536 26.1904 192.731C28.0232 192.935 26.1533 199.324 27.177 197.874C27.6522 197.202 29.0913 193.882 29.043 194.27C28.1085 201.769 28.3029 192.22 29.8366 194.392" stroke="#010101" stroke-opacity="0.5" stroke-linecap="round" stroke-linejoin="round"/>
<path d="M218.236 86.5044C223.148 86.2753 227.892 87.9897 227.116 82.495C226.731 79.7723 225.115 75.3211 225.957 72.654C226.852 69.8223 232.343 63.4363 227.652 61.436C223.718 59.7585 218.576 64.5021 217.85 67.7132C217.548 69.0487 217.613 73.2209 219.952 73.2209C221.72 73.2209 222.849 71.5823 224.392 73.0387C226.408 74.9427 226.768 76.6795 225.335 79.0729C221.896 84.8182 208.288 78.401 215.619 71.4795C216.624 70.5308 220.599 66.1798 222.483 67.4297C225.075 69.1492 224.724 73.6261 223.384 75.8533C222.047 78.0744 217.141 80.4 215.212 77.5543C214.259 76.1479 214.715 75.2054 216.306 75.2054" stroke="#010101" stroke-opacity="0.5" stroke-linecap="round" stroke-linejoin="round"/>
<path d="M259.365 120.614C259.818 120.441 273.941 113.859 273.285 117.476C272.932 119.417 273.168 121.227 273.456 123.166C273.567 123.907 275.481 129.686 273.564 129.686C269.99 129.686 266.503 127.992 262.925 128.633C261.442 128.899 258.489 129.858 258.378 127.62C258.296 125.943 256.819 118.399 260.33 119.136C263.224 119.743 263.35 117.575 261.295 122.396C261.004 123.081 259.087 128.223 259.408 127.985C262.619 125.603 264.381 121.022 267.322 118.245C269.159 116.511 266.01 123.471 265.628 124.34C263.673 128.782 268.669 120.576 269.231 119.764C271.7 116.199 269.825 122.581 269.446 123.631C268.303 126.789 271.814 120.893 273.22 120.108C277.88 117.509 273.478 126.486 272.491 124.624" stroke="#010101" stroke-opacity="0.5" stroke-linecap="round" stroke-linejoin="round"/>
<path d="M221.324 189.289C221.546 194.646 221.447 197.569 226.257 194.189C227.622 193.23 227.043 195.499 226.708 196.052C226.149 196.976 222.871 201.619 226.172 199.839C227.007 199.388 229.26 198.488 229.26 200.223C229.26 200.497 228.25 203.85 229.239 202.916C230.859 201.386 230.888 195.62 230.976 193.379C230.995 192.89 231.222 192.321 230.762 192.569C228.395 193.846 227.272 200.529 226.043 203.139C224.983 205.392 221.925 202.738 220.166 201.681C216.833 199.679 218.929 201.101 219.008 200.952" stroke="#010101" stroke-opacity="0.5" stroke-linecap="round" stroke-linejoin="round"/>
<path d="M194.686 237.036C194.672 237.206 194.218 247.669 194.3 242.584C194.325 241.032 194.277 239.479 194.3 237.927C194.364 233.519 195.197 235.564 197.217 237.38C198.143 238.213 201.54 240.01 200.992 241.694C200.83 242.189 195.376 243.086 194.514 243.394C193.868 243.626 190.053 245.894 190.053 245.784C190.053 243.075 191.064 240.145 191.404 237.441C192.126 231.717 196.322 247.041 196.595 243.172C196.659 242.261 196.616 236.839 196.616 238.19C196.616 239.197 197.388 244.565 197.388 241.046C197.388 240.249 197.388 239.453 197.388 238.656C197.388 238.28 197.605 240.078 197.753 239.729C198.288 238.467 197.388 235.928 197.388 239.021C197.388 242.492 196.358 239.993 194.107 239.993C192.181 239.993 191.079 246.654 192.069 245.095C192.937 243.73 191.228 238.171 191.984 241.025C192.379 242.52 193.33 240.868 193.914 240.317" stroke="#010101" stroke-opacity="0.5" stroke-linecap="round" stroke-linejoin="round"/>
<path d="M53.0001 316C50.6851 316 46.0102 316.511 42.7628 318.188C41.5103 318.835 40.5053 319.61 39.7554 321.535C37.4695 327.402 40.9903 333.011 42.1628 337.546C43.1503 341.366 46.3202 342.585 48.9077 342.984C51.1746 343.333 52.6601 337.968 53.5801 334.602C54.665 331.5 55 328.921 55.165 326.988C55.33 326.078 55.66 325.311 56 323.746" stroke="#1D1C1C" stroke-width="2" stroke-linecap="round"/>
<path d="M50 328.351C50.8985 328.085 54.786 327.547 57.669 327.012C58.1203 326.928 58.5697 327.273 58.8 328.604C59.0303 329.935 59.0303 332.323 58.9558 333.951C58.8813 335.58 58.7323 336.376 58.5788 338" stroke="#1D1C1C" stroke-width="2" stroke-linecap="round"/>
<path d="M62.4891 334.06C62.8197 334.06 64.3127 334.06 66.3993 333.68C67.5815 333.465 67.6643 331.002 67.9148 329.22C68.0566 328.211 68 326.932 67.752 326.154C67.312 324.774 64.8437 324.863 62.1734 325.242C61.1311 325.39 60.8258 326.38 60.5728 327.403C59.3731 332.255 60.3148 337.11 61.0662 340.18C61.2635 340.985 61.6474 341.709 62.0657 342.226C62.4841 342.743 62.98 342.996 63.4835 343C63.987 343.004 64.483 342.751 64.9865 342.494C65.49 342.237 65.986 341.984 68 341.724" stroke="#1D1C1C" stroke-width="2" stroke-linecap="round"/>
<path d="M71 337.958C71 338.452 71 334.511 71.2475 327.909C71.3387 325.477 71.99 325.007 72.575 325C74.665 326.735 75.99 329.225 76.5825 333.207C76.665 334.212 76.83 334.953 77 336.463" stroke="#1D1C1C" stroke-width="2" stroke-linecap="round"/>
<path d="M84 339C84.3432 335.122 85.7264 328.872 87.029 325.1C88.1199 321.94 89.3664 318.729 90.9264 316.634C93.3924 313.322 94.2232 323.894 95.0032 327.285C95.96 331.182 96.1316 335.091 96.4774 336.648C96.6516 337.432 96.8232 338.204 97 339" stroke="#1D1C1C" stroke-width="2" stroke-linecap="round"/>
<path d="M87 328.3C87.3126 327.838 88.2553 327.369 89.9866 327.019C92.0305 326.9 93.6268 327.362 94.5718 328.177C95.0479 328.531 95.5168 328.762 96 329" stroke="#1D1C1C" stroke-width="2" stroke-linecap="round"/>
<path d="M100 331C100 331.51 100 332.02 100 334.578C100 337.135 100 341.725 101 348" stroke="#1D1C1C" stroke-width="2" stroke-linecap="round"/>
<path d="M100 321.315C100.13 321.093 100.26 320.871 100.456 321.09C100.653 321.308 100.913 321.974 100.981 322.649C101.05 323.324 100.92 323.99 100.724 324C100.527 324.01 100.267 323.345 100.787 321.987" stroke="#1D1C1C" stroke-width="2" stroke-linecap="round"/>
<path d="M184.306 287C184.813 287 190.907 287 199.619 287.522C202.852 287.715 201.982 296.628 201.602 306.636C201.467 310.188 200.461 310.593 198.293 310.808C192.61 311.372 188.156 310.606 186.496 309.661C184.582 308.507 183.03 307.236 182.261 305.871C182 305.131 182 304.297 182 303.437" stroke="#121010" stroke-width="2" stroke-linecap="round"/>
<path d="M211.074 302.492C210.556 302.492 208.994 302.492 206.643 302.916C204.295 303.34 203.231 305.7 201.924 306.983C200.8 308.086 200.868 310.195 201.257 312.336C201.423 313.25 202.423 313.628 203.6 313.847C204.778 314.065 206.332 314.065 207.392 313.747C210.797 312.725 210.808 308.086 211.726 303.688C211.971 302.517 211.86 301.231 211.989 301C212.904 303.128 213.689 305.057 214.211 306.34C214.474 306.986 214.733 307.623 215 310.207" stroke="#121010" stroke-width="2" stroke-linecap="round"/>
<path d="M218 304.77C218.44 305.944 220.653 307.909 222.327 309C222.88 308.522 223.76 306.965 224.323 305.87C224.887 304.776 225.107 304.192 226 303" stroke="#121010" stroke-width="2" stroke-linecap="round"/>
<path d="M231.667 304C230.341 304.371 227.683 305.865 226.34 307.923C226 308.444 225.897 309.044 226.113 309.608C226.33 310.172 226.99 310.728 227.659 310.922C228.329 311.116 228.989 310.931 229.438 310.557C231.495 308.85 231.221 306.252 231.664 305.688C232.107 306.235 232.554 307.364 232.887 308.577C233 309.234 233 309.976 233 310.74" stroke="#121010" stroke-width="2" stroke-linecap="round"/>
<path d="M251.772 287.235C250.183 287.022 244.361 286.589 239.936 287.982C238.177 288.536 237.931 290.462 237.664 291.752C237.084 294.548 238.722 297.568 240.715 299.944C242.678 302.286 247.763 301.241 250.962 302.747C252.617 303.527 253.897 304.687 254.696 306.831C255.238 308.285 254.967 310.681 254.572 311.997C254.176 313.313 253.386 313.527 252.583 313.743C246.222 314.393 237.404 313.753 236.074 312.463C235.535 311.813 235.272 311.173 235 309.22" stroke="#121010" stroke-width="2" stroke-linecap="round"/>
<path d="M263.059 306C262.019 306 260.442 306 258.606 306.326C255.21 306.929 255.965 311.257 256.355 313.559C256.93 316.953 261.475 316.758 263.047 316.979C263.828 317.088 264.62 316.764 265.282 316.326C265.944 315.888 266.464 315.236 266.732 314.465C267 313.695 267 312.825 267 311.929" stroke="#121010" stroke-width="2" stroke-linecap="round"/>
<path d="M268 307.186C268.231 308.958 269.162 311.715 270.096 314.291C270.314 314.891 270.562 315.474 270.681 314.407C270.8 310.601 271.493 307.387 272.889 306.697C273.593 306.397 274.286 306.202 275 306" stroke="#121010" stroke-width="2" stroke-linecap="round"/>
<path d="M281 306C281 306.22 281 306.44 281 307.983C281 309.527 281 312.387 281 314.19C281 315.993 281 316.653 281 318" stroke="#121010" stroke-width="2" stroke-linecap="round"/>
<path d="M281 301C281 301.274 281 301.547 281 302.099C281 302.65 281 303.471 281 302.658" stroke="#121010" stroke-width="2" stroke-linecap="round"/>
<path d="M286 305C286 307.976 286.44 313.988 286.887 318.08C288 324.392 288.22 326.792 288.663 328.388C288.887 329.192 289.107 329.984 290 332" stroke="#121010" stroke-width="2" stroke-linecap="round"/>
<path d="M286 306C288.055 306 292.187 306.792 295.036 308.493C296.315 309.257 296.079 310.992 295.696 312.39C292.986 313.998 290.66 314.598 288.985 314.898C288.078 315 287.054 315 286 315" stroke="#121010" stroke-width="2" stroke-linecap="round"/>
<path d="M301.381 295C300.592 302.244 301.113 310.585 302.166 313.084C302.69 314.329 303.479 315.583 304.658 316.725C305.317 317.249 306.097 317.66 307.541 317.873C308.984 318.085 311.066 318.085 314 317.461" stroke="#121010" stroke-width="2" stroke-linecap="round"/>
<path d="M295 305.499C295.973 305.499 297.933 305.251 300.751 305C302.111 304.996 303.326 305.244 304.439 305.495C305.552 305.747 306.524 305.994 309 307" stroke="#121010" stroke-width="2" stroke-linecap="round"/>
<path d="M72.3667 3.30133C72.9465 4.09033 74.9684 8.01287 78.0465 12.0233C80.1166 14.0439 81.1791 15.3306 81.7112 16.3907C82.0302 16.865 82.4485 17.2103 82.8795 17.566" stroke="#161616" stroke-width="2" stroke-linecap="round"/>
<path d="M69 8.89252C71.3154 8.0498 79.1946 7.99848 85.0988 7.83122C88.8602 7.72466 92.4318 6.5838 95.258 7.41679C96.8289 7.8798 96.9663 9.55285 96.6121 11.4527C96.0074 14.6965 92.6219 17.1831 91.3107 18.2818C90.5788 18.8176 89.712 19.3091 87.4188 20.2344C85.1256 21.1598 81.4323 22.504 76.756 23.6726" stroke="#161616" stroke-width="2" stroke-linecap="round"/>
<path d="M100.755 12.1749L103.491 19.6924" stroke="#161616" stroke-width="2" stroke-linecap="round"/>
<path d="M102.525 9.21538C102.46 9.03513 102.394 8.85488 102.365 8.45402C102.336 8.05315 102.346 7.43715 102.694 7.09707C103.042 6.757 103.728 6.71152 104.206 7.98512" stroke="#161616" stroke-width="2" stroke-linecap="round"/>
<path d="M106.409 11.5895C107.285 12.645 109.244 15.2829 110.462 16.9309C111.469 18.2932 108.616 13.558 108.228 11.4792C108.279 10.6058 108.832 10.1009 109.419 9.65535C110.005 9.20978 110.608 8.83883 112.544 7.97781" stroke="#161616" stroke-width="2" stroke-linecap="round"/>
<path d="M115.911 15.3214C117.329 14.6451 120.658 13.1082 123.656 11.7767C124.802 11.2677 124.794 10.6414 124.711 10.0232C124.628 9.40497 124.37 8.69738 123.846 8.39513C123.322 8.09287 122.54 8.2174 121.797 8.48533C120.303 9.02419 119.047 10.1298 117.929 11.2627C116.812 12.3953 116.675 13.5818 116.771 14.9963C117.06 19.2156 120.64 19.9043 123.004 20.6683C123.516 20.8337 124.354 20.1843 124.87 19.6733C126.151 17.4271 126.421 15.8719 126.575 14.7669C126.64 14.1751 126.678 13.5203 126.56 12.4169" stroke="#161616" stroke-width="2" stroke-linecap="round"/>
<path d="M135.112 9.52511C133.868 10.1494 131.486 11.708 129.122 13.3483C128.502 13.7788 128.014 14.3549 127.713 14.8987C126.22 17.5969 128.862 20.1153 129.844 20.795C130.376 21.1625 131.258 21.318 132.079 21.1984C132.901 21.0789 133.707 20.6138 134.148 20.1077C134.588 19.6016 134.638 19.0685 134.904 18.4491C135.17 17.8296 135.651 17.1398 136.632 15.7323" stroke="#161616" stroke-width="2" stroke-linecap="round"/>
<path d="M141.998 4.83162C142.282 6.32737 142.732 10.4459 144.765 16.4111C145.344 18.1102 146.761 18.6547 148.09 19.0646C149.535 19.078 151.683 18.4783 153.918 17.3993C154.773 16.8224 155.062 16.186 155.884 14.8028" stroke="#161616" stroke-width="2" stroke-linecap="round"/>
<path d="M143.535 13.2716C143.783 13.1813 144.032 13.091 144.78 12.8188C145.528 12.5465 146.768 12.0951 147.723 11.572C148.677 11.0489 149.309 10.4679 150.711 9.59575" stroke="#161616" stroke-width="2" stroke-linecap="round"/>
<path d="M158.95 6.60907C159.681 8.6177 161.604 12.5073 163.296 16.0887C163.922 17.4156 164.949 18.1713 165.961 18.8514C167.361 19.2015 169.97 18.6415 172.99 17.4477C174.219 16.906 174.83 16.4945 175.954 15.3175" stroke="#161616" stroke-width="2" stroke-linecap="round"/>
<path d="M163.274 12.7887C163.717 12.6275 164.16 12.4662 164.72 12.2622C165.281 12.0582 165.945 11.8164 167.972 11.0786" stroke="#161616" stroke-width="2" stroke-linecap="round"/>
<path d="M163.113 5.87506C163.568 5.70952 164.939 5.2104 167.04 4.56258C168.762 4.28702 170.3 4.20262 171.827 4.11884C172.596 4.07663 173.353 4.03506 174.133 3.99222" stroke="#161616" stroke-width="2" stroke-linecap="round"/>
<path d="M185.536 11.6033C183.977 12.0011 179.987 13.1085 176.719 14.5528C175.503 15.0899 175.54 15.7456 175.787 16.767C176.41 19.3421 177.734 21.126 178.979 21.5294C180.138 21.9051 182.117 21.0792 183.871 20.1862C184.554 19.6828 184.819 19.0772 185.274 18.3096C185.729 17.542 186.367 16.6307 187.024 15.6918" stroke="#161616" stroke-width="2" stroke-linecap="round"/>
<path d="M184.934 2.84857C185.044 3.15072 186.861 8.14073 189.764 15.6357C190.908 18.2963 191.383 18.6366 191.865 18.9822C192.348 19.3277 192.823 19.668 193.312 20.0187" stroke="#161616" stroke-width="2" stroke-linecap="round"/>
<path d="M202.542 5.62311C203.641 8.64236 206.51 14.872 209.014 16.3263C210.927 17.8106 212.512 20.4844 214.338 23.0076C214.813 23.4743 215.252 23.8535 215.705 24.2442" stroke="#161616" stroke-width="2" stroke-linecap="round"/>
<path d="M200.447 9.75574C202.512 9.17962 209.347 8.45298 213.967 9.52515C217.044 10.2393 219.071 12.012 221.503 13.7847C223.696 15.3841 222.828 18.0989 222.134 19.3255C220.034 21.6008 218.297 23.1216 216.259 24.1294C214.832 24.7392 212.608 25.5489 210.316 26.3831" stroke="#161616" stroke-width="2" stroke-linecap="round"/>
<path d="M223.419 18.9395C224.41 19.8346 225.608 21.9209 227.472 22.785C227.998 21.7981 228.182 20.4589 228.226 19.3632C228.248 18.8113 228.269 18.2675 228.117 17.2294" stroke="#161616" stroke-width="2" stroke-linecap="round"/>
<path d="M229.9 19.3256C230.135 19.9706 230.725 21.5929 231.554 23.87C231.913 24.857 232.148 25.502 232.592 26.7212C233.035 27.9403 233.681 29.7141 234.346 31.5416" stroke="#161616" stroke-width="2" stroke-linecap="round"/>
<path d="M233.515 20.3954C233.95 19.4007 236.353 17.1854 239.071 15.4353C239.796 14.9687 240.813 14.7158 241.493 14.7176C242.809 14.721 243.456 16.762 244.031 19.07C244.266 20.0159 243.816 20.6676 243.359 21.2573C242.305 22.3966 240.049 23.5602 237.185 24.5198C235.961 24.8821 235.204 24.9912 233.552 24.9172" stroke="#161616" stroke-width="2" stroke-linecap="round"/>
<path d="M249.262 12.3777C250.682 16.2788 253.837 23.5847 256.052 23.5212C257.672 23.1842 260.299 22.2281 261.954 21.5439C263.609 20.8598 264.214 20.4764 264.836 20.0815" stroke="#161616" stroke-width="2" stroke-linecap="round"/>
<path d="M248.395 17.4727C248.609 17.3946 248.824 17.3164 250.223 16.8074C251.621 16.2983 254.197 15.3606 256.852 14.3945" stroke="#161616" stroke-width="2" stroke-linecap="round"/>
<path d="M12.6796 76.9045C16.5327 72.5147 16.3053 71.2607 15.4266 66.842C14.9427 64.4087 14.7577 62.0313 13.7784 59.6374C12.0272 55.3566 11.4588 49.5921 16.9422 46.1453C27.7319 39.3632 47.825 49.0085 41.7411 57.613C39.4256 60.8878 35.4246 63.3124 32.5339 66.4014C31.3746 67.6402 30.7252 68.983 29.2185 70.1406C27.7735 71.2507 25.9789 72.6324 25.9789 74.0108C25.9789 75.1752 26.5312 76.6849 25.2211 77.7143C23.4113 79.1363 24.0547 78.405 21.3753 78.405C19.5334 78.405 16.8173 77.4847 15.3319 76.7378C14.2714 76.2045 13.7026 77.7469 13.7026 76.2615C13.7026 74.9863 14.3556 76.0471 13.0206 76.0471" stroke="#060606" stroke-width="1.66333" stroke-linecap="round" stroke-linejoin="round"/>
<path d="M21.2048 80.9772C17.558 80.2938 7.46366 78.7675 9.79997 80.6556C12.6188 82.9337 13.8243 81.792 17.2832 82.2752C19.052 82.5223 20.7766 85.9539 18.8177 86.0263C16.0201 86.1297 14.1649 83.7637 11.3156 83.7637C8.7222 83.7637 8.90795 85.9091 10.463 86.6693C12.5166 87.6733 14.8781 86.5941 16.2602 88.1579C18.4442 90.629 12.4784 90.227 10.7851 89.6464C9.07919 89.0615 7.45621 88.1482 6.20044 87.622" stroke="#060606" stroke-width="1.66333" stroke-linecap="round" stroke-linejoin="round"/>
<path d="M12.6794 76.2079C12.7258 76.3945 12.7741 77.6547 13.5746 77.6547C14.0056 77.6547 14.2039 77.4904 14.5976 77.6279C15.0607 77.7896 15.495 78.1703 15.938 78.393C16.3283 78.5893 17.4868 78.5651 17.7093 78.8098C18.0728 79.2097 18.8108 79.4286 19.4996 79.4767C20.3927 79.5391 20.7229 79.8208 21.6735 79.6881C21.9641 79.6475 21.9934 79.5303 22.2656 79.5303C22.6858 79.5303 22.8671 79.6566 23.1844 79.435C23.5355 79.1898 24.1092 79.0749 24.2785 78.7026C24.5085 78.1965 25.3519 77.9302 24.1032 78.2442" stroke="#060606" stroke-width="1.66333" stroke-linecap="round" stroke-linejoin="round"/>
<path d="M29.1331 54.9872C27.6078 54.9924 26.3471 55.0542 25.8272 56.0709C25.4735 56.7627 25.4672 57.4425 25.4672 58.1608C25.4672 58.8592 26.1493 59.4207 26.1493 60.0781C26.1493 60.947 25.0437 60.8047 24.1079 61.0694C23.224 61.3194 22.5836 61.5283 22.1045 62.0876C21.6301 62.6414 21.9886 63.7124 22.0524 64.3144C22.1074 64.8325 22.4994 65.9336 21.9293 66.3716C21.6195 66.6096 19.9267 66.977 21.0341 66.455" stroke="#060606" stroke-width="1.66333" stroke-linecap="round" stroke-linejoin="round"/>
<path d="M42.0063 64.6866C43.2277 65.1966 44.4725 65.624 45.838 65.9459C46.4104 66.0808 47.1642 66.3216 47.0362 65.7583" stroke="#060606" stroke-width="1.66333" stroke-linecap="round" stroke-linejoin="round"/>
<path d="M46.4392 57.2915C48.6038 57.6191 50.7537 57.9882 52.8994 58.3513C53.2563 58.4117 52.4372 57.8446 52.4068 57.8274" stroke="#060606" stroke-width="1.66333" stroke-linecap="round" stroke-linejoin="round"/>
<path d="M47.0361 50.2715C49.2777 50.0667 51.5126 49.8126 53.7426 49.563C54.7693 49.4481 55.204 49.5327 54.6236 48.9854" stroke="#060606" stroke-width="1.66333" stroke-linecap="round" stroke-linejoin="round"/>
<path d="M34.9304 42.8228C36.7014 42.6272 38.2366 42.4387 39.8371 41.9357C40.5863 41.7002 41.3077 41.4172 42.0916 41.2271C43.0231 41.0013 43.0422 41.07 42.0063 40.6794" stroke="#060606" stroke-width="1.66333" stroke-linecap="round" stroke-linejoin="round"/>
<path d="M19.4996 38C19.2411 39.1373 19.3266 39.8185 20.0585 40.8491C20.4531 41.4046 20.7868 42.1068 20.982 42.7068C21.0493 42.9134 21.0868 43.031 21.3088 43.1861C21.392 43.2441 21.0869 42.554 21.0341 42.4478" stroke="#060606" stroke-width="1.66333" stroke-linecap="round" stroke-linejoin="round"/>
<path d="M6.45605 42.5549C7.022 43.7393 7.82867 44.8755 8.31265 46.0619C8.55751 46.6622 8.40443 46.6987 7.99059 46.0917" stroke="#060606" stroke-width="1.66333" stroke-linecap="round" stroke-linejoin="round"/>
<path d="M1 51.0753C2.93692 52.1291 4.5254 53.4371 6.02987 54.7312C6.21841 54.8934 6.43639 54.951 6.64558 55.0825C7.12079 55.3812 6.30045 54.7065 6.20037 54.6121" stroke="#060606" stroke-width="1.66333" stroke-linecap="round" stroke-linejoin="round"/>
</svg>
