<svg width="30" height="29" viewBox="0 0 30 29" fill="none" xmlns="http://www.w3.org/2000/svg">
<path d="M20.3333 9.66675C22.4551 9.66675 24.4899 10.5096 25.9902 12.0099C27.4905 13.5102 28.3333 15.545 28.3333 17.6667V27.0001H23V17.6667C23 16.9595 22.719 16.2812 22.2189 15.7811C21.7188 15.281 21.0406 15.0001 20.3333 15.0001C19.6261 15.0001 18.9478 15.281 18.4477 15.7811C17.9476 16.2812 17.6667 16.9595 17.6667 17.6667V27.0001H12.3333V17.6667C12.3333 15.545 13.1762 13.5102 14.6765 12.0099C16.1768 10.5096 18.2116 9.66675 20.3333 9.66675Z" stroke="#1E1E1E" stroke-width="3" stroke-linecap="round" stroke-linejoin="round"/>
<path d="M6.99999 11.0001H1.66666V27.0001H6.99999V11.0001Z" stroke="#1E1E1E" stroke-width="3" stroke-linecap="round" stroke-linejoin="round"/>
<path d="M4.33332 7.00008C5.80608 7.00008 6.99999 5.80617 6.99999 4.33341C6.99999 2.86066 5.80608 1.66675 4.33332 1.66675C2.86056 1.66675 1.66666 2.86066 1.66666 4.33341C1.66666 5.80617 2.86056 7.00008 4.33332 7.00008Z" stroke="#1E1E1E" stroke-width="3" stroke-linecap="round" stroke-linejoin="round"/>
</svg>
